<svg width="1920" height="1080" viewBox="0 0 1920 1080" fill="none" xmlns="http://www.w3.org/2000/svg">
<g clip-path="url(#clip0)">
<path d="M1920 0H0V1080H1920V0Z" fill="#5E3656"/>
<path d="M1906.5 565H1684.5C1679.25 565 1675 569.253 1675 574.5C1675 579.747 1679.25 584 1684.5 584H1906.5C1911.75 584 1916 579.747 1916 574.5C1916 569.253 1911.75 565 1906.5 565Z" fill="#E9A0BC"/>
<path d="M1903.5 535H1804.5C1799.81 535 1796 538.806 1796 543.5C1796 548.194 1799.81 552 1804.5 552H1903.5C1908.19 552 1912 548.194 1912 543.5C1912 538.806 1908.19 535 1903.5 535Z" fill="#E9A0BC"/>
<path d="M1719.5 535H1683.5C1678.81 535 1675 538.806 1675 543.5C1675 548.194 1678.81 552 1683.5 552H1719.5C1724.19 552 1728 548.194 1728 543.5C1728 538.806 1724.19 535 1719.5 535Z" fill="#E9A0BC"/>
<path d="M1906.5 597H1684.5C1679.25 597 1675 601.253 1675 606.5C1675 611.747 1679.25 616 1684.5 616H1906.5C1911.75 616 1916 611.747 1916 606.5C1916 601.253 1911.75 597 1906.5 597Z" fill="#E9A0BC"/>
<path d="M258.5 27H36.5C31.2533 27 27 31.2533 27 36.5C27 41.7467 31.2533 46 36.5 46H258.5C263.747 46 268 41.7467 268 36.5C268 31.2533 263.747 27 258.5 27Z" fill="#E9A0BC"/>
<path d="M331.5 27H300.5C295.253 27 291 31.2533 291 36.5C291 41.7467 295.253 46 300.5 46H331.5C336.747 46 341 41.7467 341 36.5C341 31.2533 336.747 27 331.5 27Z" fill="#E9A0BC"/>
<path d="M152.5 906H28.5C23.2533 906 19 910.253 19 915.5C19 920.747 23.2533 925 28.5 925H152.5C157.747 925 162 920.747 162 915.5C162 910.253 157.747 906 152.5 906Z" fill="#E9A0BC"/>
<path d="M123.5 842H92.5C87.2533 842 83 846.253 83 851.5C83 856.747 87.2533 861 92.5 861H123.5C128.747 861 133 856.747 133 851.5C133 846.253 128.747 842 123.5 842Z" fill="#E9A0BC"/>
<path d="M59.5 842H28.5C23.2533 842 19 846.253 19 851.5C19 856.747 23.2533 861 28.5 861H59.5C64.7467 861 69 856.747 69 851.5C69 846.253 64.7467 842 59.5 842Z" fill="#E9A0BC"/>
<path d="M183.5 959H27.5C22.8056 959 19 962.806 19 967.5C19 972.194 22.8056 976 27.5 976H183.5C188.194 976 192 972.194 192 967.5C192 962.806 188.194 959 183.5 959Z" fill="#E9A0BC"/>
<path d="M1614 27C1595.53 31.007 1565.75 72.5 1565.75 72.5L1753 74.667C1753 74.667 1711.45 16.928 1686.92 12.921C1662.39 8.914 1645.87 53.974 1645.87 53.974C1645.87 53.974 1632.47 22.993 1614 27Z" fill="#E9A0BC"/>
<path d="M1573 70H1743C1751.01 70 1756 76.492 1756 84.5C1756 88.3456 1754.47 92.0338 1751.75 94.753C1749.03 97.4723 1745.35 99 1741.5 99H1575.5C1571.65 99 1567.97 97.4723 1565.25 94.753C1562.53 92.0338 1561 88.3456 1561 84.5C1561 76.492 1564.99 70 1573 70Z" fill="#E9A0BC"/>
<path d="M1443 1080C1443 1080 1507.59 1001.18 1530.4 1001.18C1553.21 1001.18 1621.29 1080 1621.29 1080C1621.29 1080 1721.13 924.611 1764.61 924.611C1808.09 924.611 1920 1080 1920 1080H1443Z" fill="#A16E97"/>
<path d="M89 525C70.533 529.007 40.75 570.5 40.75 570.5L228 572.667C228 572.667 186.454 514.928 161.921 510.921C137.388 506.914 120.868 551.974 120.868 551.974C120.868 551.974 107.467 520.993 89 525Z" fill="#E9A0BC"/>
<path d="M48 568H218C226.008 568 231 574.492 231 582.5C231 586.346 229.472 590.034 226.753 592.753C224.034 595.472 220.346 597 216.5 597H50.5C46.6544 597 42.9662 595.472 40.247 592.753C37.5277 590.034 36 586.346 36 582.5C36 574.492 39.992 568 48 568Z" fill="#E9A0BC"/>
<path d="M1822 967.5C1822 967.5 1806.5 1014.38 1776 1016C1745.5 1017.62 1700 974 1700 974C1700 974 1740.91 925 1763 925C1785.09 925 1822 963 1822 963" fill="#BC93B4"/>
<path d="M1487 1031C1487 1031 1513 1003 1528 1001C1543 999 1575 1031 1575 1031C1575 1031 1557 1058 1535 1058C1513 1058 1487 1031 1487 1031Z" fill="#BC93B4"/>
</g>
<defs>
<clipPath id="clip0">
<rect width="1920" height="1080" fill="white"/>
</clipPath>
</defs>
</svg>
