<svg  style="display: block;" viewBox="0 0 1920 1080" fill="none" xmlns="http://www.w3.org/2000/svg">
<path d="M1450 809.626C1581.2 688.026 1816.67 715.626 1920 735.626V1079.69H10C139.333 1053.02 196.21 1044.84 382 927.626C680 739.626 898 955.626 1122 955.626C1241.79 955.626 1318.8 931.226 1450 809.626Z" fill="#5E3656"/>
<path d="M227.801 1066L279.199 1066C280.746 1066 282 1062.42 282 1058C282 1053.58 280.746 1050 279.199 1050L227.801 1050C226.254 1050 225 1053.58 225 1058C225 1062.42 226.254 1066 227.801 1066Z" fill="#E9A0BC"/>
<path d="M293.801 1066L345.199 1066C346.746 1066 348 1062.42 348 1058C348 1053.58 346.746 1050 345.199 1050L293.801 1050C292.254 1050 291 1053.58 291 1058C291 1062.42 292.254 1066 293.801 1066Z" fill="#E9A0BC"/>
<path d="M522.5 935L646.5 935C651.747 935 656 930.747 656 925.5C656 920.253 651.747 916 646.5 916L522.5 916C517.253 916 513 920.253 513 925.5C513 930.747 517.253 935 522.5 935Z" fill="#E9A0BC"/>
<path d="M569.5 906L600.5 906C605.747 906 610 901.747 610 896.5C610 891.253 605.747 887 600.5 887L569.5 887C564.253 887 560 891.253 560 896.5C560 901.747 564.253 906 569.5 906Z" fill="#E9A0BC"/>
<path d="M1161.5 1038L1192.5 1038C1197.75 1038 1202 1033.75 1202 1028.5C1202 1023.25 1197.75 1019 1192.5 1019L1161.5 1019C1156.25 1019 1152 1023.25 1152 1028.5C1152 1033.75 1156.25 1038 1161.5 1038Z" fill="#E9A0BC"/>
<path d="M1098.5 1006L1254.5 1006C1259.19 1006 1263 1002.19 1263 997.5C1263 992.806 1259.19 989 1254.5 989L1098.5 989C1093.81 989 1090 992.806 1090 997.5C1090 1002.19 1093.81 1006 1098.5 1006Z" fill="#E9A0BC"/>
<path d="M1754 870.331C1735.53 874.338 1705.75 915.831 1705.75 915.831L1893 917.998C1893 917.998 1851.45 860.259 1826.92 856.252C1802.39 852.245 1785.87 897.305 1785.87 897.305C1785.87 897.305 1772.47 866.324 1754 870.331Z" fill="#E9A0BC"/>
<path d="M1713 913.331H1883C1891.01 913.331 1896 919.823 1896 927.831C1896 931.677 1894.47 935.365 1891.75 938.084C1889.03 940.804 1885.35 942.331 1881.5 942.331H1715.5C1711.65 942.331 1707.97 940.804 1705.25 938.084C1702.53 935.365 1701 931.677 1701 927.831C1701 919.823 1704.99 913.331 1713 913.331Z" fill="#E9A0BC"/>
</svg>
