<svg viewBox="0 0 1920 1080" fill="none" xmlns="http://www.w3.org/2000/svg">
<path d="M1920 0H0V1080H1920V0Z" fill="#5E3656"/>
<path d="M48 611.315L48 543.685C48 541.65 44.1944 540 39.5 540C34.8056 540 31 541.65 31 543.685L31 611.315C31 613.35 34.8056 615 39.5 615C44.1944 615 48 613.35 48 611.315Z" fill="#E9A0BC"/>
<path d="M48 524.315L48 456.685C48 454.65 44.1944 453 39.5 453C34.8056 453 31 454.65 31 456.685L31 524.315C31 526.35 34.8056 528 39.5 528C44.1944 528 48 526.35 48 524.315Z" fill="#E9A0BC"/>
<path d="M300.5 48H78.5C73.2533 48 69 52.2533 69 57.5C69 62.7467 73.2533 67 78.5 67H300.5C305.747 67 310 62.7467 310 57.5C310 52.2533 305.747 48 300.5 48Z" fill="#E9A0BC"/>
<path d="M297.5 18H198.5C193.806 18 190 21.8056 190 26.5C190 31.1944 193.806 35 198.5 35H297.5C302.194 35 306 31.1944 306 26.5C306 21.8056 302.194 18 297.5 18Z" fill="#E9A0BC"/>
<path d="M113.5 18H77.5C72.8056 18 69 21.8056 69 26.5C69 31.1944 72.8056 35 77.5 35H113.5C118.194 35 122 31.1944 122 26.5C122 21.8056 118.194 18 113.5 18Z" fill="#E9A0BC"/>
<path d="M300.5 80H78.5C73.2533 80 69 84.2533 69 89.5C69 94.7467 73.2533 99 78.5 99H300.5C305.747 99 310 94.7467 310 89.5C310 84.2533 305.747 80 300.5 80Z" fill="#E9A0BC"/>
<path d="M1905 732.5L1905 608.5C1905 603.253 1900.75 599 1895.5 599C1890.25 599 1886 603.253 1886 608.5L1886 732.5C1886 737.747 1890.25 742 1895.5 742C1900.75 742 1905 737.747 1905 732.5Z" fill="#E9A0BC"/>
<path d="M1873.5 567L1873.5 536C1873.5 530.753 1869.25 526.5 1864 526.5C1858.75 526.5 1854.5 530.753 1854.5 536L1854.5 567C1854.5 572.247 1858.75 576.5 1864 576.5C1869.25 576.5 1873.5 572.247 1873.5 567Z" fill="#E9A0BC"/>
<path d="M1874 493.5L1874 462.5C1874 457.253 1869.75 453 1864.5 453C1859.25 453 1855 457.253 1855 462.5L1855 493.5C1855 498.747 1859.25 503 1864.5 503C1869.75 503 1874 498.747 1874 493.5Z" fill="#E9A0BC"/>
<path d="M1904 568.5L1904 412.5C1904 407.806 1900.19 404 1895.5 404C1890.81 404 1887 407.806 1887 412.5L1887 568.5C1887 573.194 1890.81 577 1895.5 577C1900.19 577 1904 573.194 1904 568.5Z" fill="#E9A0BC"/>
<path d="M1614 27C1595.53 31.007 1565.75 72.5 1565.75 72.5L1753 74.667C1753 74.667 1711.45 16.928 1686.92 12.921C1662.39 8.914 1645.87 53.974 1645.87 53.974C1645.87 53.974 1632.47 22.993 1614 27Z" fill="#E9A0BC"/>
<path d="M1573 70H1743C1751.01 70 1756 76.492 1756 84.5C1756 88.3456 1754.47 92.0338 1751.75 94.753C1749.03 97.4723 1745.35 99 1741.5 99H1575.5C1571.65 99 1567.97 97.4723 1565.25 94.753C1562.53 92.0338 1561 88.3456 1561 84.5C1561 76.492 1564.99 70 1573 70Z" fill="#E9A0BC"/>
</svg>
