<svg  viewBox="0 0 1920 430" fill="none" xmlns="http://www.w3.org/2000/svg">
<path d="M0 0H1920V380C1920 407.614 1897.61 430 1870 430H50C22.3858 430 0 407.614 0 380V0Z" fill="#5E3656"/>
<path d="M1708.5 306L1832.5 306C1837.75 306 1842 301.747 1842 296.5C1842 291.253 1837.75 287 1832.5 287L1708.5 287C1703.25 287 1699 291.253 1699 296.5C1699 301.747 1703.25 306 1708.5 306Z" fill="#E9A0BC"/>
<path d="M1755.5 277L1786.5 277C1791.75 277 1796 272.747 1796 267.5C1796 262.253 1791.75 258 1786.5 258L1755.5 258C1750.25 258 1746 262.253 1746 267.5C1746 272.747 1750.25 277 1755.5 277Z" fill="#E9A0BC"/>
<path d="M104.5 338L135.5 338C140.747 338 145 333.747 145 328.5C145 323.253 140.747 319 135.5 319L104.5 319C99.2533 319 95 323.253 95 328.5C95 333.747 99.2533 338 104.5 338Z" fill="#E9A0BC"/>
<path d="M41.5 306L197.5 306C202.194 306 206 302.194 206 297.5C206 292.806 202.194 289 197.5 289L41.5 289C36.8056 289 33 292.806 33 297.5C33 302.194 36.8056 306 41.5 306Z" fill="#E9A0BC"/>
<path d="M1795.68 69.7035C1787 71.5778 1773 90.9864 1773 90.9864L1861 92C1861 92 1841.47 64.9923 1829.95 63.118C1818.42 61.2437 1810.65 82.3207 1810.65 82.3207C1810.65 82.3207 1804.35 67.8292 1795.68 69.7035Z" fill="#E9A0BC"/>
<path d="M1776.6 90H1855.93C1859.67 90 1862 92.9102 1862 96.5C1862 98.2239 1861.29 99.8772 1860.02 101.096C1858.75 102.315 1857.03 103 1855.23 103H1777.77C1775.97 103 1774.25 102.315 1772.98 101.096C1771.71 99.8772 1771 98.2239 1771 96.5C1771 92.9102 1772.86 90 1776.6 90Z" fill="#E9A0BC"/>
</svg>
