<svg  viewBox="0 0 1910 433" fill="none" xmlns="http://www.w3.org/2000/svg">
<path d="M1436 105C1567.2 -16.6 1806.67 -7.00002 1910 13V433H0C129.333 406.333 232.21 406.21 418 289C716 101 898 259 1122 259C1241.79 259 1304.8 226.6 1436 105Z" fill="#5E3656"/>
<path d="M218.685 419L286.315 419C288.35 419 290 415.194 290 410.5C290 405.806 288.35 402 286.315 402L218.685 402C216.65 402 215 405.806 215 410.5C215 415.194 216.65 419 218.685 419Z" fill="#E9A0BC"/>
<path d="M305.685 419L373.315 419C375.35 419 377 415.194 377 410.5C377 405.806 375.35 402 373.315 402L305.685 402C303.65 402 302 405.806 302 410.5C302 415.194 303.65 419 305.685 419Z" fill="#E9A0BC"/>
<path d="M778.5 420.5L902.5 420.5C907.747 420.5 912 416.247 912 411C912 405.753 907.747 401.5 902.5 401.5L778.5 401.5C773.253 401.5 769 405.753 769 411C769 416.247 773.253 420.5 778.5 420.5Z" fill="#E9A0BC"/>
<path d="M944 389L975 389C980.247 389 984.5 384.747 984.5 379.5C984.5 374.253 980.247 370 975 370L944 370C938.753 370 934.5 374.253 934.5 379.5C934.5 384.747 938.753 389 944 389Z" fill="#E9A0BC"/>
<path d="M1017.5 389.5L1048.5 389.5C1053.75 389.5 1058 385.247 1058 380C1058 374.753 1053.75 370.5 1048.5 370.5L1017.5 370.5C1012.25 370.5 1008 374.753 1008 380C1008 385.247 1012.25 389.5 1017.5 389.5Z" fill="#E9A0BC"/>
<path d="M942.5 419.5L1098.5 419.5C1103.19 419.5 1107 415.694 1107 411C1107 406.306 1103.19 402.5 1098.5 402.5L942.5 402.5C937.806 402.5 934 406.306 934 411C934 415.694 937.806 419.5 942.5 419.5Z" fill="#E9A0BC"/>
<path d="M1710 188.331C1691.53 192.338 1661.75 233.831 1661.75 233.831L1849 235.998C1849 235.998 1807.45 178.259 1782.92 174.252C1758.39 170.245 1741.87 215.305 1741.87 215.305C1741.87 215.305 1728.47 184.324 1710 188.331Z" fill="#E9A0BC"/>
<path d="M1669 231.331H1839C1847.01 231.331 1852 237.823 1852 245.831C1852 249.677 1850.47 253.365 1847.75 256.084C1845.03 258.804 1841.35 260.331 1837.5 260.331H1671.5C1667.65 260.331 1663.97 258.804 1661.25 256.084C1658.53 253.365 1657 249.677 1657 245.831C1657 237.823 1660.99 231.331 1669 231.331Z" fill="#E9A0BC"/>
</svg>

