<svg width="211" height="139" viewBox="0 0 211 139" fill="none" xmlns="http://www.w3.org/2000/svg">
<g clip-path="url(#clip0)">
<path d="M176.047 97.6412C177.911 101.003 182.148 102.218 185.511 100.355C188.875 98.491 190.09 94.2547 188.226 90.8926C186.361 87.5304 182.124 86.3156 178.761 88.1792C175.398 90.0428 174.183 94.2791 176.047 97.6412Z" fill="#9249BC"/>
<path d="M185.748 115.137C187.612 118.499 191.849 119.714 195.212 117.851C198.575 115.987 199.79 111.751 197.926 108.389C196.062 105.026 191.825 103.812 188.462 105.675C185.099 107.539 183.883 111.775 185.748 115.137Z" fill="#9249BC"/>
<path d="M195.448 132.632C197.312 135.994 201.55 137.209 204.913 135.346C208.276 133.482 209.491 129.246 207.627 125.884C205.763 122.521 201.526 121.307 198.163 123.17C194.799 125.034 193.584 129.27 195.448 132.632Z" fill="#9249BC"/>
<path d="M68.8858 38.269C67.1021 40.1209 64.9539 41.5831 62.5767 42.5634C60.1994 43.5437 57.6448 44.0209 55.0739 43.9647C52.503 43.9086 49.9716 43.3204 47.6394 42.2373C45.3073 41.1542 43.2249 39.5996 41.5238 37.6717L0 76.966L58.3908 138.637L114.048 85.9684L68.8858 38.269Z" fill="#E49BBC"/>
<path d="M55.4462 40.0846C57.6375 40.0871 59.8067 39.6464 61.8232 38.7889C63.8397 37.9313 65.6618 36.6748 67.1799 35.0949L55.601 22.8654L43.2297 34.5722C44.7569 36.3066 46.6364 37.6955 48.7431 38.6461C50.8497 39.5966 53.1349 40.0871 55.4462 40.0846V40.0846Z" fill="#E49BBC"/>
<path d="M146.597 57.9694C146.601 61.8104 145.847 65.6146 144.378 69.164C142.91 72.7134 140.756 75.9384 138.039 78.6545C135.322 81.3705 132.096 83.5242 128.546 84.9924C124.995 86.4605 121.19 87.2142 117.348 87.2104C117.182 87.2104 117.015 87.2086 116.848 87.205C116.146 87.194 115.453 87.1585 114.763 87.0984C109.11 86.5974 103.725 84.4632 99.264 80.956C94.8031 77.4487 91.4591 72.7198 89.6395 67.3458C87.8199 61.9717 87.6033 56.1845 89.0162 50.6895C90.4291 45.1945 93.4104 40.2291 97.5968 36.3985C101.783 32.5678 106.994 30.0374 112.594 29.1155C118.193 28.1937 123.94 28.9203 129.134 31.2068C134.328 33.4932 138.745 37.2408 141.845 41.9928C144.946 46.7447 146.597 52.2958 146.597 57.9694V57.9694Z" fill="#8F46BC"/>
<path opacity="0.1" d="M134.297 47.3871C136.131 44.1541 137.328 40.5995 137.823 36.9159C133.932 33.1665 129.079 30.5677 123.801 29.408C118.523 28.2482 113.027 28.5728 107.923 30.3458C102.818 32.1188 98.3049 35.2708 94.8833 39.4522C91.4617 43.6336 89.2657 48.6809 88.5388 54.0341C93.3427 58.6766 99.5967 61.5277 106.253 62.1096C106.942 62.1697 107.635 62.2052 108.338 62.2162C108.504 62.2198 108.671 62.2216 108.838 62.2216C114.016 62.2271 119.102 60.8562 123.576 58.2493C128.05 55.6424 131.75 51.8934 134.297 47.3862V47.3871Z" fill="black"/>
<path d="M130.287 86.502H83.3109V138.959H130.287V86.502Z" fill="#2F2E41"/>
<path opacity="0.1" d="M145.332 68.8858C143.514 73.1528 140.708 76.9268 137.145 79.8971C133.582 82.8674 129.364 84.9489 124.839 85.9703H131.352V138.427H88.0233L112.341 96.3213L117.913 86.6696L118.319 85.9657L136.761 54.0341L145.332 68.8858Z" fill="black"/>
<path d="M142.785 54.3928L167.203 96.6755L191.621 138.958H93.9471L118.365 96.6755L142.785 54.3928Z" fill="#3F3D56"/>
<path d="M191.623 138.604H6.55405V138.958H191.623V138.604Z" fill="#2F2E41"/>
<path d="M30.4022 130.582L30.0788 133.277L28.2454 134.14L26.1962 133.492L24.7944 134.14L24.3627 131.659L26.8428 128.856L30.4022 130.582Z" fill="#9F616A"/>
<path d="M29.1079 132.631C29.1079 132.631 30.7801 130.682 30.8065 131.657C30.833 132.631 34.4998 135.973 34.4998 135.973C34.4998 135.973 40.2159 137.699 35.794 138.777C31.3721 139.855 21.6658 136.728 21.3425 136.082C21.0192 135.435 24.0385 130.475 24.3627 130.906C24.9631 131.545 25.7053 132.035 26.5296 132.334C27.3539 132.634 28.2371 132.735 29.1079 132.631Z" fill="#2F2E41"/>
<path d="M33.2065 100.607C33.2065 100.607 33.8541 105.674 33.2065 106.429C32.9632 106.797 32.8335 107.228 32.8335 107.669C32.8335 108.11 32.9632 108.541 33.2065 108.909C33.5298 109.124 32.7748 109.987 32.2356 110.418C31.6858 111.138 31.2494 111.938 30.9414 112.79C30.9414 112.79 28.0268 120.445 28.0268 121.2C28.0268 121.955 26.7326 123.567 26.8428 124.114C26.953 124.66 26.0878 126.378 26.1962 126.701C26.3045 127.025 24.7945 129.936 25.2253 130.367C25.6561 130.799 31.588 132.308 31.2647 131.338C30.9414 130.368 30.7255 129.182 30.9414 129.182C31.1572 129.182 32.1254 127.998 31.9123 127.565C31.6991 127.131 38.3789 115.812 38.3789 115.812L33.2065 100.607Z" fill="#2F2E41"/>
<path opacity="0.1" d="M29.1079 132.631C29.1079 132.631 30.7801 130.682 30.8065 131.657C30.833 132.631 34.4998 135.973 34.4998 135.973C34.4998 135.973 40.2159 137.699 35.794 138.777C31.3721 139.855 21.6658 136.728 21.3425 136.082C21.0192 135.435 24.0385 130.475 24.3627 130.906C24.9631 131.545 25.7053 132.035 26.5296 132.334C27.3539 132.634 28.2371 132.735 29.1079 132.631Z" fill="black"/>
<path opacity="0.1" d="M33.2065 100.607C33.2065 100.607 33.8541 105.674 33.2065 106.429C32.9632 106.797 32.8335 107.228 32.8335 107.669C32.8335 108.11 32.9632 108.541 33.2065 108.909C33.5298 109.124 32.7748 109.987 32.2356 110.418C31.6858 111.138 31.2494 111.938 30.9414 112.79C30.9414 112.79 28.0268 120.445 28.0268 121.2C28.0268 121.955 26.7326 123.567 26.8428 124.114C26.953 124.66 26.0878 126.378 26.1962 126.701C26.3045 127.025 24.7945 129.936 25.2253 130.367C25.6561 130.799 31.588 132.308 31.2647 131.338C30.9414 130.368 30.7255 129.182 30.9414 129.182C31.1572 129.182 32.1254 127.998 31.9123 127.565C31.6991 127.131 38.3789 115.812 38.3789 115.812L33.2065 100.607Z" fill="black"/>
<path d="M44.207 129.244L45.391 132.263L44.8518 136.468L41.4009 136.252L39.46 134.527V130.861L44.207 129.244Z" fill="#9F616A"/>
<path d="M43.5604 132.91C43.5604 132.91 44.7444 129.029 45.3938 130.107C45.8037 130.799 46.164 131.52 46.4722 132.263C46.4722 132.263 51.7547 135.713 53.1592 135.713C54.5636 135.713 55.8551 137.438 54.0217 138.085C52.1883 138.731 38.1676 139.595 37.9517 138.085C37.7359 136.575 38.1676 131.724 38.8142 132.263C39.4609 132.802 42.8053 133.988 43.5604 132.91Z" fill="#2F2E41"/>
<path d="M46.2563 85.1444C46.2563 85.1444 51.0097 88.3741 51.2256 88.8048C51.4414 89.2355 54.1993 90.5621 51.9351 91.6402C49.6709 92.7183 43.6678 85.8983 43.6678 85.8983L46.2563 85.1444Z" fill="#9F616A"/>
<path d="M43.8837 78.8908C43.8837 78.8908 47.3347 85.576 46.688 85.7909C46.0413 86.0058 43.4529 87.3006 43.4529 87.3006L42.2689 80.508L43.8837 78.8908Z" fill="#575A88"/>
<path opacity="0.1" d="M43.8837 78.8908C43.8837 78.8908 47.3347 85.576 46.688 85.7909C46.0413 86.0058 43.4529 87.3006 43.4529 87.3006L42.2689 80.508L43.8837 78.8908Z" fill="black"/>
<path d="M43.6687 84.4979C43.6687 84.4979 44.4238 90.105 44.1005 91.2906C43.7771 92.4761 44.3163 110.267 43.8846 111.237C43.4529 112.207 43.1296 118.461 43.1296 119.216C43.1296 119.971 43.9921 126.116 44.2079 126.656C44.4238 127.196 45.0704 129.028 44.7471 129.89C44.4238 130.752 40.0019 132.909 39.3543 132.155C38.7068 131.4 39.2469 129.028 38.7068 128.92C38.1667 128.813 37.5227 123.745 37.5227 123.745L33.9634 103.906C33.9634 103.906 27.2763 87.3014 28.7864 85.6843C30.2965 84.0672 43.6687 84.4979 43.6687 84.4979Z" fill="#2F2E41"/>
<path d="M39.6777 46.2216C42.5962 46.2216 44.9621 43.8564 44.9621 40.9387C44.9621 38.021 42.5962 35.6558 39.6777 35.6558C36.7592 35.6558 34.3932 38.021 34.3932 40.9387C34.3932 43.8564 36.7592 46.2216 39.6777 46.2216Z" fill="#9F616A"/>
<path d="M41.6185 45.251C41.6185 45.251 39.8926 49.7791 40.1085 50.7498C40.3243 51.7204 35.0399 49.0243 35.0399 49.0243C35.0399 49.0243 35.3632 43.7432 35.0399 42.3391C34.7166 40.9351 41.6185 45.251 41.6185 45.251Z" fill="#9F616A"/>
<path d="M27.1279 74.7516C27.1516 75.6557 27.167 76.1957 27.167 76.1957C27.167 76.1957 26.8437 81.1554 27.3829 82.7725C27.9221 84.3896 27.9221 85.576 28.2454 86.6541C28.3365 86.9682 29.6316 87.1358 31.4441 87.2104C33.1072 87.2787 35.2093 87.2687 37.2267 87.2223C40.5675 87.1449 43.6824 86.9655 44.207 86.8699C45.391 86.6541 43.9911 84.8212 44.4229 83.8505C44.8546 82.8799 43.6678 70.4811 43.6678 70.4811C43.6678 70.4811 43.7753 63.47 43.2361 60.7775C42.5712 58.1381 41.5554 55.5997 40.2159 53.2301C39.7842 52.691 40.1084 52.3678 41.0784 51.7204C42.0484 51.073 41.0784 48.5936 41.0784 48.5936C39.245 47.0839 34.6118 46.8681 34.6118 46.8681C34.6118 46.8681 27.494 54.1998 27.0623 55.7095C26.8009 56.62 26.8947 63.9043 27.0095 69.5342C27.0505 71.6512 27.0969 73.5333 27.1279 74.7516Z" fill="#575A88"/>
<path d="M36.2267 88.1638C36.2267 88.1638 40.3252 96.5735 37.0892 97.1126C33.8531 97.6516 32.2356 89.4576 32.2356 89.4576L36.2267 88.1638Z" fill="#9F616A"/>
<path d="M44.6187 38.2608C44.642 37.7982 44.5394 37.3379 44.322 36.9289C44.1045 36.5199 43.7803 36.1775 43.3837 35.938C41.7945 34.7056 39.8391 34.0391 37.8279 34.0441C36.4004 34.0011 35.0038 34.4643 33.885 35.3516C33.2803 35.9171 32.812 36.6126 32.5156 37.3855C32.2191 38.1584 32.1022 38.9886 32.1737 39.8133C32.3319 41.4655 32.9511 43.0401 33.9606 44.3578C34.4242 44.9951 35.1684 45.6635 35.9097 45.3839C36.1994 45.2483 36.4479 45.0385 36.6302 44.7757C37.1054 44.1863 37.5195 43.5502 37.8661 42.8772C38.0979 42.3459 38.3901 41.843 38.7368 41.3785C38.913 41.1475 39.1433 40.9635 39.4074 40.8426C39.6716 40.7218 39.9615 40.6678 40.2515 40.6856C40.726 40.7511 41.1905 41.0844 41.6432 40.9278C42.1459 40.7529 42.268 40.1083 42.308 39.5793C42.306 38.9731 42.3643 38.3683 42.482 37.7737C42.6587 37.8638 44.5322 38.6951 44.6187 38.2608Z" fill="#2F2E41"/>
<path opacity="0.1" d="M27.1288 74.7543C28.3365 79.1094 31.1071 86.4483 31.2656 86.7643C31.3057 86.8453 31.3676 87.0038 31.4478 87.2132C33.1109 87.2815 35.213 87.2715 37.2304 87.225C36.954 86.6239 36.7274 86.0011 36.5527 85.363C36.5527 84.8239 33.9643 70.9154 33.9643 70.9154C33.9643 70.9154 36.0136 64.7702 37.847 59.5947C39.6804 54.4192 32.4004 55.4436 32.4004 55.4436C28.5177 54.4729 27.8165 56.1447 27.8165 56.1447C27.8165 56.1447 27.4749 65.2337 27.0086 69.5378C26.9701 70.2614 26.8428 70.9776 26.6297 71.6703C26.4557 71.9826 26.6889 73.1708 27.1288 74.7543Z" fill="black"/>
<path d="M33.9615 51.9389C33.9615 51.9389 38.9226 53.9876 37.0892 59.1631C35.2558 64.3386 33.2065 70.4838 33.2065 70.4838C33.2065 70.4838 35.795 84.3923 35.795 84.9313C35.795 85.4704 37.4125 88.3814 36.7659 88.9204C36.1192 89.4594 31.8048 90.5375 31.6973 89.9985C31.3675 88.7565 30.9723 87.5329 30.5133 86.3327C30.2974 85.9011 25.2307 72.4242 25.8755 71.2378C26.3519 70.3645 26.7699 62.3691 26.9567 58.2061C26.9999 57.0184 27.3518 55.8625 27.9777 54.852C28.6036 53.8416 29.4818 53.0114 30.526 52.4433C31.5666 51.8481 32.7937 51.6679 33.9615 51.9389Z" fill="#575A88"/>
<path d="M53.885 83.489H47.5031V89.8692H53.885V83.489Z" fill="#8F46BC"/>
<path d="M50.6937 83.4891C51.7706 83.4891 52.6437 82.6163 52.6437 81.5396C52.6437 80.463 51.7706 79.5901 50.6937 79.5901C49.6167 79.5901 48.7437 80.463 48.7437 81.5396C48.7437 82.6163 49.6167 83.4891 50.6937 83.4891Z" fill="#3F3D56"/>
<path d="M126.059 19.552C131.376 19.552 135.687 15.2426 135.687 9.92669C135.687 4.61078 131.376 0.301392 126.059 0.301392C120.741 0.301392 116.431 4.61078 116.431 9.92669C116.431 15.2426 120.741 19.552 126.059 19.552Z" fill="#FF6584"/>
<path d="M126.033 16.5026C126.033 23.765 121.714 26.3009 116.387 26.3009C111.06 26.3009 106.741 23.765 106.741 16.5026C106.741 9.24015 116.387 0.000915527 116.387 0.000915527C116.387 0.000915527 126.033 9.23924 126.033 16.5026Z" fill="#E49BBC"/>
<path d="M116.036 25.1891L116.135 19.1113L120.246 11.5921L116.148 18.1579L116.192 15.4263L119.026 9.98587L116.202 14.7034L116.282 9.78646L119.316 5.45503L116.299 9.01433L116.344 0L116.031 11.928L116.057 11.4354L112.974 6.71886L116.01 12.3842L115.722 17.8739L115.714 17.7282L112.162 12.7603L115.708 18.2426L115.671 18.9292L115.665 18.9392V18.9956L114.936 32.9269H115.911L116.027 25.7336L119.564 20.264L116.036 25.1891Z" fill="#3F3D56"/>
<path d="M149.276 27.3571C146.971 34.2444 142.071 35.2788 137.018 33.5897C131.966 31.9007 128.675 28.1265 130.981 21.2383C133.286 14.3501 145.366 8.6492 145.366 8.6492C145.366 8.6492 151.581 20.4698 149.276 27.3571Z" fill="#E49BBC"/>
<path d="M137.038 32.4243L139.061 26.6879L145.346 20.8604L139.377 25.7883L140.288 23.2105L144.702 18.9501L140.529 22.5285L142.168 17.8921L146.42 14.7471L142.421 17.1673L145.329 8.63554L141.245 19.8516L141.427 19.3963L140 13.9412L141.08 20.2768L139.066 25.3913L139.104 25.2501L137.308 19.4108L138.93 25.7345L138.678 26.3719L138.669 26.3801L138.653 26.4347L133.54 39.4099L134.465 39.7186L136.859 32.9333L141.948 28.8686L137.038 32.4243Z" fill="#3F3D56"/>
<path d="M101.397 21.8156C104.01 28.5918 100.893 32.5108 95.9217 34.4265C90.9506 36.3423 86.0086 35.5283 83.3965 28.752C80.7843 21.9758 86.4604 9.88661 86.4604 9.88661C86.4604 9.88661 98.7833 15.0384 101.397 21.8156Z" fill="#E49BBC"/>
<path d="M95.1921 33.5187L93.0973 27.8115L94.2294 19.3143L92.7721 26.9137L91.8304 24.3478L92.5171 18.2527L91.5809 23.6685L89.8868 19.053L91.1619 13.9203L89.6226 18.3273L86.4267 9.89938L90.4223 21.1454L90.2693 20.6765L85.6926 17.3804L90.5626 21.5752L92.2694 26.8008L92.2093 26.6679L87.1034 23.3107L92.386 27.1513L92.5991 27.8051V27.817L92.6219 27.8689L96.9518 41.1272L97.8626 40.7766L95.3834 34.0223L96.7159 27.6485L95.1921 33.5187Z" fill="#3F3D56"/>
<path d="M80.91 79.3953C80.808 79.5661 80.6729 79.7148 80.5126 79.8327C80.3523 79.9506 80.1701 80.0354 79.9766 80.0819C79.7831 80.1285 79.5823 80.136 79.3859 80.1039C79.1895 80.0718 79.0015 80.0009 78.8329 79.8952C78.6642 79.7895 78.5185 79.6512 78.404 79.4885C78.2896 79.3257 78.2088 79.1417 78.1665 78.9473C78.1241 78.7529 78.121 78.552 78.1573 78.3564C78.1937 78.1608 78.2687 77.9745 78.378 77.8082C78.9755 76.8549 81.002 76.436 81.002 76.436C81.002 76.436 81.5075 78.4429 80.91 79.3953Z" fill="#8F46BC"/>
<path d="M152.195 50.828C152.22 51.0261 152.205 51.227 152.151 51.4191C152.096 51.6112 152.004 51.7905 151.88 51.9465C151.755 52.1024 151.601 52.2319 151.425 52.3272C151.25 52.4224 151.057 52.4816 150.859 52.5012C150.66 52.5207 150.459 52.5004 150.269 52.4412C150.078 52.382 149.901 52.2852 149.749 52.1566C149.596 52.028 149.471 51.8701 149.38 51.6923C149.289 51.5145 149.235 51.3203 149.221 51.1212C149.111 50.0022 150.457 48.4306 150.457 48.4306C150.457 48.4306 152.084 49.709 152.195 50.828Z" fill="#8F46BC"/>
<path d="M77.7305 59.0948C77.6284 59.2656 77.4933 59.4144 77.333 59.5323C77.1727 59.6502 76.9905 59.7349 76.797 59.7815C76.6036 59.828 76.4027 59.8355 76.2063 59.8034C76.0099 59.7713 75.8219 59.7004 75.6533 59.5947C75.4847 59.489 75.3389 59.3507 75.2245 59.188C75.11 59.0252 75.0293 58.8412 74.9869 58.6468C74.9445 58.4525 74.9414 58.2516 74.9778 58.0559C75.0141 57.8603 75.0891 57.674 75.1985 57.5077C75.796 56.5544 77.8225 56.1356 77.8225 56.1356C77.8225 56.1356 78.328 58.1424 77.7305 59.0948Z" fill="#8F46BC"/>
</g>
<defs>
<clipPath id="clip0">
<rect width="211" height="139" fill="white"/>
</clipPath>
</defs>
</svg>
