<svg viewBox="0 0 1457 1078" fill="none" xmlns="http://www.w3.org/2000/svg">
<path d="M1456.96 -5.30158e-06C1456.96 -5.30158e-06 807.296 24.0892 897.27 452.723C987.244 881.357 582.344 671.532 267.965 742.081C-46.414 812.63 2.7981 1077.75 2.7981 1077.75L1456.97 1077.75L1456.96 -5.30158e-06Z" fill="#E79EBC"/>
<g filter="url(#filter0_d)">
<path d="M991.372 111.43H673.77C640.633 111.43 613.77 138.293 613.77 171.43V908.421C613.77 941.558 640.633 968.421 673.77 968.421H991.372C1024.51 968.421 1051.37 941.558 1051.37 908.421V171.43C1051.37 138.293 1024.51 111.43 991.372 111.43Z" fill="white"/>
</g>
<path d="M897.664 587.562C893.209 597.223 882.347 603.525 871.718 607.551C838.32 620.178 801.937 617.272 768.637 610.56C756.582 608.131 744.45 605.138 734.575 598.859C714.472 586.076 707.159 559.418 717.637 537.102C721.2 529.509 726.505 522.565 732.192 515.982C742.296 504.281 753.948 493.345 767.843 485.619C777.755 480.11 788.584 476.354 799.475 473.267C829.907 464.635 861.868 460.95 891.931 465.378C905.117 467.321 918.393 471.092 927.224 479.683C936.055 488.275 939.096 502.716 931.207 513.519C927.943 517.987 923.211 521.426 918.559 524.746C911.71 529.634 904.731 534.551 899.339 540.765C893.77 547.186 888.269 557.306 892.904 564.113C897.865 571.437 902.115 577.911 897.664 587.562Z" fill="#FCF5F8"/>
<path d="M818.827 469.055L823.64 541.64L896.742 536.792C893.751 496.723 859.019 466.47 818.827 469.055Z" fill="#C4869F"/>
<path d="M879.74 593.737C892.006 578.862 897.901 559.75 896.143 540.556C896.124 540.348 896.106 540.142 896.087 539.937L823.124 546.514L879.74 593.737Z" fill="#E69DBB"/>
<path d="M819.349 551.204L769.399 605.736C776.648 612.235 785.118 617.228 794.316 620.423C803.514 623.618 813.257 624.952 822.977 624.347C832.697 623.742 842.199 621.21 850.93 616.899C859.661 612.588 867.447 606.584 873.834 599.237L819.349 551.204Z" fill="#E69DBB"/>
<path d="M814.661 546.368L742.837 562.857C741.714 557.646 741.149 552.329 741.151 546.998C741.151 546.786 741.151 546.577 741.151 546.368H814.661Z" fill="#5E5A6B"/>
<path d="M743.212 564.174C744.732 571.166 747.266 577.897 750.734 584.154L815.348 547.742L743.212 564.174Z" fill="#FF748E"/>
<path d="M815.901 549.116L752.144 585.223L752.174 585.28C755.403 591.152 759.417 596.552 764.103 601.329L816.035 549.116H815.901Z" fill="#C4869F"/>
<path opacity="0.15" d="M814.563 538.425L810.08 465.819L809.928 465.828C769.658 468.315 738.985 502.794 741.138 542.982L814.563 538.425Z" fill="black"/>
<path opacity="0.15" d="M803.821 528.22L799.337 455.614L799.185 455.623C758.915 458.11 728.242 492.59 730.396 532.777L803.821 528.22Z" fill="#C4869F"/>
<path opacity="0.1" d="M772.672 686.33C781.865 678.143 796.299 676.481 809.434 677.125C850.697 679.176 887.943 699.081 920.159 721.598C931.822 729.749 943.305 738.533 950.876 749.759C966.287 772.613 961.718 804.269 940.286 823.094C932.996 829.499 924.158 834.412 915.082 838.764C898.954 846.503 881.54 852.714 863.229 854.484C850.169 855.744 836.947 854.72 823.967 852.959C787.698 848.043 752.095 837.173 722.256 818.575C709.169 810.418 696.831 800.278 691.437 787.083C686.043 773.887 689.496 757.164 702.858 749.353C708.386 746.123 714.995 744.664 721.464 743.294C730.989 741.276 740.665 739.288 749.258 735.19C758.134 730.955 768.647 722.765 766.879 713.402C765.003 703.34 763.489 694.508 772.672 686.33Z" fill="#E69DBB"/>
<rect x="790.295" y="758.691" width="14.2931" height="80.1658" fill="#C4869F"/>
<rect x="821.367" y="745.641" width="15.536" height="93.8375" fill="#E69DBB"/>
<rect x="849.953" y="725.133" width="14.9146" height="113.724" fill="#EAACC5"/>
<rect x="783.959" y="756.084" width="17.6432" height="77.3015" stroke="black"/>
<rect x="815.031" y="741.791" width="17.6432" height="89.7303" stroke="black"/>
<rect x="844.86" y="720.662" width="18.2647" height="110.859" stroke="#464646"/>
<rect x="874.811" y="704.626" width="15.536" height="134.231" fill="#EAACC5"/>
<rect x="871.582" y="700.154" width="16.4003" height="129.503" stroke="#464646"/>
<path d="M728.102 694.683V863.093H986" stroke="black"/>
<path opacity="0.1" d="M763.207 230.109C772.458 221.87 786.984 220.196 800.203 220.845C841.729 222.909 879.213 242.941 911.635 265.602C923.372 273.805 934.929 282.645 942.548 293.942C958.057 316.942 953.458 348.8 931.89 367.745C924.553 374.191 915.659 379.136 906.525 383.515C890.295 391.304 872.769 397.555 854.341 399.336C841.197 400.604 827.891 399.573 814.829 397.801C778.328 392.854 742.498 381.914 712.468 363.198C699.297 354.988 686.881 344.784 681.453 331.505C676.025 318.225 679.499 301.395 692.946 293.534C698.51 290.284 705.161 288.815 711.672 287.436C721.257 285.406 730.995 283.405 739.642 279.281C748.575 275.019 759.155 266.776 757.376 257.353C755.488 247.228 753.964 238.339 763.207 230.109Z" fill="#E69DBB"/>
<rect x="791.524" y="262.906" width="21.2638" height="113.824" fill="#C4869F"/>
<rect x="835.928" y="240.391" width="21.2638" height="113.824" fill="#E69DBB"/>
<rect x="874.704" y="262.906" width="21.2638" height="113.824" fill="#EAACC5"/>
<path d="M847.811 252.274V216M847.811 336.704V376.73" stroke="black"/>
<path d="M885.335 279.329V246.02M885.335 356.86V393.616" stroke="black"/>
<path d="M802.156 273.701V240.391M802.156 351.232V387.987" stroke="black"/>
<rect x="783.269" y="259.028" width="25.2671" height="109.697" stroke="black"/>
<rect x="825.796" y="235.262" width="25.2671" height="109.697" stroke="black"/>
<rect x="868.324" y="259.028" width="25.2671" height="109.697" stroke="#464646"/>
<path d="M718.352 238.515V408H977.896" stroke="black"/>
<defs>
<filter id="filter0_d" x="573.77" y="91.43" width="517.602" height="936.991" filterUnits="userSpaceOnUse" color-interpolation-filters="sRGB">
<feFlood flood-opacity="0" result="BackgroundImageFix"/>
<feColorMatrix in="SourceAlpha" type="matrix" values="0 0 0 0 0 0 0 0 0 0 0 0 0 0 0 0 0 0 127 0"/>
<feOffset dy="20"/>
<feGaussianBlur stdDeviation="20"/>
<feColorMatrix type="matrix" values="0 0 0 0 0 0 0 0 0 0 0 0 0 0 0 0 0 0 0.161 0"/>
<feBlend mode="normal" in2="BackgroundImageFix" result="effect1_dropShadow"/>
<feBlend mode="normal" in="SourceGraphic" in2="effect1_dropShadow" result="shape"/>
</filter>
</defs>
</svg>
