<svg width="305" height="231" viewBox="0 0 305 231" fill="none" xmlns="http://www.w3.org/2000/svg">
<g clip-path="url(#clip0)">
<path d="M199.482 0L143.963 61.966C146.949 64.2818 149.425 67.1875 151.239 70.5022C153.053 73.8169 154.164 77.4695 154.505 81.2325C154.845 84.9955 154.407 88.7884 153.218 92.3748C152.029 95.9612 150.114 99.2643 147.593 102.078C145.071 104.893 141.998 107.157 138.563 108.732C135.128 110.306 131.406 111.156 127.628 111.23C123.85 111.303 120.098 110.597 116.605 109.157C113.112 107.717 109.953 105.573 107.324 102.859L29.988 189.174C55.4384 208.895 87.4152 218.241 119.48 215.332C151.546 212.422 181.318 197.473 202.803 173.493C224.288 149.513 235.89 118.284 235.274 86.0932C234.658 53.9022 221.869 23.14 199.482 0V0Z" fill="#FDF5F8"/>
<path d="M128.034 101.741C137.209 101.741 144.646 94.3036 144.646 85.129C144.646 75.9544 137.209 68.517 128.034 68.517C118.859 68.517 111.422 75.9544 111.422 85.129C111.422 94.3036 118.859 101.741 128.034 101.741Z" fill="#FDF5F8"/>
<path d="M209.597 115.97H28.102V230.33H209.597V115.97Z" fill="#3F3D56"/>
<path d="M227.43 59.281C227.43 59.281 215.73 58.807 215.416 70.821C215.102 82.835 215.416 93.11 215.416 93.11H238.816V71.453C238.816 71.453 238.337 60.069 227.43 59.281Z" fill="#2F2E41"/>
<path d="M222.864 80.692C222.864 80.692 223.558 88.563 221.243 89.257C218.928 89.951 222.169 99.906 222.169 99.906L231.429 101.99L236.753 91.341L234.44 88.335C234.44 88.335 230.505 83.011 232.357 79.307C234.209 75.603 222.864 80.692 222.864 80.692Z" fill="#FFB9B9"/>
<path opacity="0.1" d="M222.864 80.692C222.864 80.692 223.558 88.563 221.243 89.257C218.928 89.951 222.169 99.906 222.169 99.906L231.429 101.99L236.753 91.341L234.44 88.335C234.44 88.335 230.505 83.011 232.357 79.307C234.209 75.603 222.864 80.692 222.864 80.692Z" fill="black"/>
<path d="M226.104 84.395C231.09 84.395 235.132 80.353 235.132 75.367C235.132 70.381 231.09 66.339 226.104 66.339C221.118 66.339 217.076 70.381 217.076 75.367C217.076 80.353 221.118 84.395 226.104 84.395Z" fill="#FFB9B9"/>
<path d="M190.917 106.388C190.917 106.388 185.361 110.555 186.982 113.796C188.603 117.037 193.464 128.149 193.464 128.149C193.464 128.149 194.39 136.714 198.325 136.249C202.26 135.784 198.325 127.221 198.325 127.221L193.464 114.021L195.084 111.474L190.917 106.388Z" fill="#FFB9B9"/>
<path d="M265.922 107.777C265.922 107.777 272.172 112.639 268.469 114.491C264.766 116.343 249.023 125.14 249.023 125.14C249.023 125.14 239.532 132.316 238.374 126.761C237.216 121.206 244.624 121.437 244.624 121.437C244.624 121.437 259.44 112.409 260.134 110.557C260.828 108.705 265.922 107.777 265.922 107.777Z" fill="#FFB9B9"/>
<path d="M210.826 139.492C210.826 139.492 207.816 155.928 209.437 165.192C210.391 170.956 210.234 176.849 208.974 182.554L218.002 183.48C218.002 183.48 223.789 149.218 227.031 149.45C230.273 149.682 237.217 183.943 237.217 183.943L246.94 182.554C246.94 182.554 243.93 167.275 245.319 162.645C246.708 158.015 245.782 141.345 242.31 139.495C238.838 137.645 210.826 139.492 210.826 139.492Z" fill="#575A89"/>
<path d="M218.928 182.551C218.928 182.551 208.511 179.078 207.585 181.625C206.659 184.172 206.891 212.646 207.122 214.498C207.353 216.35 208.048 215.424 207.354 216.35C206.66 217.276 206.66 215.193 206.891 217.739C206.915 218.758 207.071 219.769 207.354 220.748C207.354 220.748 203.187 230.471 210.595 230.239C218.003 230.007 214.53 223.063 214.53 223.063C214.53 223.063 215.688 220.98 214.993 219.822C214.298 218.664 214.067 216.812 214.993 215.887C215.919 214.962 214.067 213.109 213.835 212.414C213.603 211.719 212.909 211.951 214.761 209.636C216.613 207.321 215.687 206.164 215.456 205.469C215.225 204.774 217.077 200.608 217.077 200.608L218.928 182.551Z" fill="#2F2E41"/>
<path d="M236.522 182.551C236.522 182.551 246.939 179.078 247.865 181.625C248.791 184.172 248.56 212.646 248.328 214.498C248.096 216.35 247.402 215.424 248.096 216.35C248.79 217.276 248.79 215.193 248.559 217.739C248.534 218.758 248.379 219.769 248.096 220.748C248.096 220.748 252.263 230.471 244.855 230.239C237.447 230.007 240.92 223.063 240.92 223.063C240.92 223.063 239.763 220.98 240.457 219.822C241.151 218.664 241.383 216.812 240.457 215.887C239.531 214.962 241.383 213.109 241.614 212.415C241.845 211.721 242.54 211.952 240.688 209.637C238.836 207.322 239.762 206.165 239.993 205.47C240.224 204.775 238.373 200.609 238.373 200.609L236.522 182.551Z" fill="#2F2E41"/>
<path d="M226.567 96.666C226.567 96.666 224.947 91.805 224.021 90.879C223.297 89.884 222.778 88.7547 222.494 87.557C222.494 87.557 217.307 89.49 215.918 89.957C214.529 90.424 209.899 90.42 209.899 91.114V105.93C209.899 105.93 209.436 108.939 210.362 116.579C211.288 124.219 214.062 128.848 210.825 132.089C207.588 135.33 210.362 143.201 211.983 144.589C213.604 145.977 245.083 153.154 245.319 136.255C245.319 136.255 237.68 122.828 240.919 118.43C244.158 114.032 246.938 106.624 246.938 106.624V91.809C246.938 91.809 241.845 90.189 240.224 89.957C238.603 89.725 234.668 85.327 234.205 85.557C233.76 85.6793 233.29 85.6763 232.847 85.548L232.816 88.798L226.567 96.666Z" fill="#E79EBC"/>
<path d="M213.141 92.267L209.9 91.11C209.9 91.11 205.965 93.193 205.965 93.657C205.965 94.121 203.65 96.203 202.493 97.129C201.336 98.055 198.093 98.286 198.093 98.749C198.093 99.212 187.907 106.62 188.833 107.777C189.759 108.934 192.768 113.102 194.389 113.102C196.01 113.102 199.945 108.935 200.639 108.702C201.333 108.469 208.51 104.072 210.825 104.767C213.14 105.462 213.141 92.267 213.141 92.267Z" fill="#E79EBC"/>
<path d="M242.541 92.729L246.941 91.803C246.941 91.803 255.275 98.053 255.507 98.285C255.739 98.517 268.707 106.85 268.007 108.471C267.307 110.092 259.907 112.407 258.052 111.712C256.197 111.017 248.329 105.23 245.32 105.925C242.311 106.62 242.541 92.729 242.541 92.729Z" fill="#E79EBC"/>
<path d="M235.712 72.474C236.812 67.858 236.362 66.632 236.362 66.632L222.293 63.154L217.393 67.896V72.796L217.888 74.325C218.45 73.9005 218.869 73.3155 219.092 72.6473C219.314 71.9792 219.328 71.2593 219.132 70.583C219.132 70.583 234.922 75.794 235.712 72.474Z" fill="#2F2E41"/>
<path d="M235.887 69.89L234.554 71.316C236.654 71.341 233.854 88.258 234.786 90.993L238.259 91.072V68.535L235.887 69.89Z" fill="#2F2E41"/>
<path d="M217.423 75.484C217.806 75.484 218.117 74.8102 218.117 73.979C218.117 73.1478 217.806 72.474 217.423 72.474C217.04 72.474 216.729 73.1478 216.729 73.979C216.729 74.8102 217.04 75.484 217.423 75.484Z" fill="#FFB9B9"/>
<path d="M235.248 75.484C235.631 75.484 235.942 74.8102 235.942 73.979C235.942 73.1478 235.631 72.474 235.248 72.474C234.865 72.474 234.554 73.1478 234.554 73.979C234.554 74.8102 234.865 75.484 235.248 75.484Z" fill="#FFB9B9"/>
<path d="M109.594 204.291L109.178 203.875L127.054 185.999L111.236 170.181L111.652 169.765L127.885 186L109.594 204.291Z" fill="#2F2E41"/>
<path d="M126.441 192.321C129.851 192.321 132.616 189.556 132.616 186.146C132.616 182.736 129.851 179.971 126.441 179.971C123.031 179.971 120.266 182.736 120.266 186.146C120.266 189.556 123.031 192.321 126.441 192.321Z" fill="#E79EBC"/>
<path d="M110.268 210.258C113.678 210.258 116.443 207.493 116.443 204.083C116.443 200.673 113.678 197.908 110.268 197.908C106.858 197.908 104.093 200.673 104.093 204.083C104.093 207.493 106.858 210.258 110.268 210.258Z" fill="#E79EBC"/>
<path d="M110.77 170.181L110.354 169.765L128.23 151.889L112.412 136.071L112.828 135.655L129.061 151.89L110.77 170.181Z" fill="#2F2E41"/>
<path d="M112.62 142.039C116.03 142.039 118.795 139.274 118.795 135.864C118.795 132.454 116.03 129.689 112.62 129.689C109.21 129.689 106.445 132.454 106.445 135.864C106.445 139.274 109.21 142.039 112.62 142.039Z" fill="#E79EBC"/>
<path d="M127.617 158.211C131.027 158.211 133.792 155.446 133.792 152.036C133.792 148.626 131.027 145.861 127.617 145.861C124.207 145.861 121.442 148.626 121.442 152.036C121.442 155.446 124.207 158.211 127.617 158.211Z" fill="#E79EBC"/>
<path d="M111.444 176.148C114.854 176.148 117.619 173.383 117.619 169.973C117.619 166.563 114.854 163.798 111.444 163.798C108.034 163.798 105.269 166.563 105.269 169.973C105.269 173.383 108.034 176.148 111.444 176.148Z" fill="#E79EBC"/>
<path opacity="0.3" d="M66.749 123.22H36.168V128.807H66.749V123.22Z" fill="#E79EBC"/>
<path opacity="0.3" d="M188.779 186.44H158.198V187.91H188.779V186.44Z" fill="#E79EBC"/>
<path opacity="0.3" d="M188.779 190.851H158.198V192.321H188.779V190.851Z" fill="#E79EBC"/>
<path opacity="0.3" d="M188.779 195.261H158.198V196.731H188.779V195.261Z" fill="#E79EBC"/>
<path opacity="0.3" d="M188.779 199.672H158.198V201.142H188.779V199.672Z" fill="#E79EBC"/>
<path opacity="0.3" d="M188.779 204.083H158.198V205.553H188.779V204.083Z" fill="#E79EBC"/>
<path opacity="0.3" d="M188.779 208.494H158.198V209.964H188.779V208.494Z" fill="#E79EBC"/>
<path d="M19.63 218.473C21.663 225.988 28.63 230.643 28.63 230.643C28.63 230.643 32.297 223.113 30.264 215.597C28.231 208.081 21.264 203.427 21.264 203.427C21.264 203.427 17.597 210.957 19.63 218.473Z" fill="#3F3D56"/>
<path d="M22.617 216.857C28.196 222.288 28.877 230.636 28.877 230.636C28.877 230.636 20.514 230.179 14.935 224.749C9.35601 219.319 8.675 210.97 8.675 210.97C8.675 210.97 17.038 211.427 22.617 216.857Z" fill="#E79EBC"/>
<path d="M304.634 229.959H0V230.547H304.634V229.959Z" fill="#3F3D56"/>
</g>
<defs>
<clipPath id="clip0">
<rect width="304.634" height="230.642" fill="white"/>
</clipPath>
</defs>
</svg>
