<svg id="undraw_business_analytics_l92d" xmlns="http://www.w3.org/2000/svg" width="327.808" height="251.554" viewBox="0 0 327.808 251.554">
  <path id="Path_30" data-name="Path 30" d="M768.038,242.859c9,51.691,3.514,102.528-37.867,119.861s-91.52-8.227-111.988-57.091,19.938-74.8,37.867-119.861C692.459,94.257,740.085,82.335,768.038,242.859Z" transform="translate(-443.937 -117.564)" fill="#f2f2f2"/>
  <ellipse id="Ellipse_6" data-name="Ellipse 6" cx="2.448" cy="2.448" rx="2.448" ry="2.448" transform="translate(287.343 207.647)" fill="#ff6584"/>
  <line id="Line_1" data-name="Line 1" y1="27.869" transform="translate(301.782 222.851)" fill="#3f3d56" stroke="#3f3d56" stroke-miterlimit="10" stroke-width="2"/>
  <ellipse id="Ellipse_7" data-name="Ellipse 7" cx="3.941" cy="3.941" rx="3.941" ry="3.941" transform="translate(297.841 218.91)" fill="#3f3d56"/>
  <path id="Path_31" data-name="Path 31" d="M947.93,737.94s-.563-12.109-12.1-10.7" transform="translate(-646.148 -497.913)" fill="#3f3d56"/>
  <line id="Line_2" data-name="Line 2" x2="113.105" transform="translate(13.857 34.456)" fill="none" stroke="#f2f2f2" stroke-miterlimit="10" stroke-width="2"/>
  <line id="Line_3" data-name="Line 3" x2="113.105" transform="translate(13.857 69.286)" fill="none" stroke="#f2f2f2" stroke-miterlimit="10" stroke-width="2"/>
  <line id="Line_4" data-name="Line 4" x2="113.105" transform="translate(13.857 97.001)" fill="none" stroke="#f2f2f2" stroke-miterlimit="10" stroke-width="2"/>
  <line id="Line_5" data-name="Line 5" x2="99.248" transform="translate(21.535 130.895)" fill="none" stroke="#3f3d56" stroke-miterlimit="10" stroke-width="2"/>
  <ellipse id="Ellipse_8" data-name="Ellipse 8" cx="5.992" cy="5.992" rx="5.992" ry="5.992" transform="translate(9.738 124.715)" fill="none" stroke="#3f3d56" stroke-miterlimit="10" stroke-width="2"/>
  <line id="Line_6" data-name="Line 6" y1="33.707" transform="translate(45.901 97.001)" fill="none" stroke="#3f3d56" stroke-miterlimit="10" stroke-width="2"/>
  <line id="Line_7" data-name="Line 7" y1="61.421" transform="translate(70.994 69.286)" fill="none" stroke="#3f3d56" stroke-miterlimit="10" stroke-width="2"/>
  <line id="Line_8" data-name="Line 8" y1="96.252" transform="translate(96.461 34.456)" fill="none" stroke="#3f3d56" stroke-miterlimit="10" stroke-width="2"/>
  <circle id="Ellipse_9" data-name="Ellipse 9" cx="5.464" cy="5.464" r="5.464" transform="translate(40.426 125.244)" fill="#8f46bc"/>
  <circle id="Ellipse_10" data-name="Ellipse 10" cx="5.464" cy="5.464" r="5.464" transform="translate(65.695 125.244)" fill="#8f46bc"/>
  <circle id="Ellipse_11" data-name="Ellipse 11" cx="5.464" cy="5.464" r="5.464" transform="translate(90.964 125.244)" fill="#8f46bc"/>
  <ellipse id="Ellipse_12" data-name="Ellipse 12" cx="5.992" cy="5.992" rx="5.992" ry="5.992" transform="translate(120.97 124.715)" fill="none" stroke="#3f3d56" stroke-miterlimit="10" stroke-width="2"/>
  <circle id="Ellipse_13" data-name="Ellipse 13" cx="13.483" cy="13.483" r="13.483" transform="translate(32.583 83.518)" fill="#3f3d56"/>
  <circle id="Ellipse_14" data-name="Ellipse 14" cx="13.483" cy="13.483" r="13.483" transform="translate(57.676 55.804)" fill="#3f3d56"/>
  <circle id="Ellipse_15" data-name="Ellipse 15" cx="13.483" cy="13.483" r="13.483" transform="translate(83.144 20.973)" fill="#3f3d56"/>
  <circle id="Ellipse_16" data-name="Ellipse 16" cx="5.243" cy="5.243" r="5.243" transform="translate(91.383 29.213)" fill="#8f46bc"/>
  <circle id="Ellipse_17" data-name="Ellipse 17" cx="5.243" cy="5.243" r="5.243" transform="translate(65.916 64.043)" fill="#8f46bc"/>
  <circle id="Ellipse_18" data-name="Ellipse 18" cx="5.243" cy="5.243" r="5.243" transform="translate(40.823 91.758)" fill="#8f46bc"/>
  <circle id="Ellipse_19" data-name="Ellipse 19" cx="4.869" cy="4.869" r="4.869" transform="translate(0 29.587)" fill="#f2f2f2"/>
  <circle id="Ellipse_20" data-name="Ellipse 20" cx="4.869" cy="4.869" r="4.869" transform="translate(0 64.043)" fill="#f2f2f2"/>
  <circle id="Ellipse_21" data-name="Ellipse 21" cx="4.869" cy="4.869" r="4.869" transform="translate(0 92.132)" fill="#f2f2f2"/>
  <rect id="Rectangle_31" data-name="Rectangle 31" width="26.216" height="2.451" transform="translate(4.869)" fill="#3f3d56"/>
  <rect id="Rectangle_32" data-name="Rectangle 32" width="26.216" height="2.451" transform="translate(4.869 5.516)" fill="#3f3d56"/>
  <rect id="Rectangle_33" data-name="Rectangle 33" width="26.216" height="2.451" transform="translate(4.869 11.031)" fill="#3f3d56"/>
  <path id="Path_32" data-name="Path 32" d="M799.926,196.988s7.08,9.071,6.195,15.487,14.6-8.85,14.6-8.85-5.31-11.062-2.433-16.372S799.926,196.988,799.926,196.988Z" transform="translate(-561.145 -159.524)" fill="#ffb9b9"/>
  <path id="Path_33" data-name="Path 33" d="M819.306,705.452s9.292,10.177,7.744,12.39-28.762,10.62-31.859,10.177-4.646-2.655-3.54-3.319,8.186-4.425,8.186-4.425l5.974-6.858s4.425-2.434,4.425-3.761S819.306,705.452,819.306,705.452Z" transform="translate(-555.747 -484.357)" fill="#2f2e41"/>
  <path id="Path_34" data-name="Path 34" d="M817,735.579s-3.54,5.752-4.2,5.974,3.319,8.186,3.319,8.186l9.292-2.876,5.089-4.2-1.106-5.753Z" transform="translate(-569.15 -503.201)" fill="#ffb9b9"/>
  <path id="Path_35" data-name="Path 35" d="M777.32,442.574,772.9,462.265s-15.265,34.293-4.646,40.266L791.48,547l12.39-5.531-20.8-45.576,9.514-52.435Z" transform="translate(-538.982 -319.932)" fill="#d0cde1"/>
  <path id="Path_36" data-name="Path 36" d="M777.32,442.574,772.9,462.265s-15.265,34.293-4.646,40.266L791.48,547l12.39-5.531-20.8-45.576,9.514-52.435Z" transform="translate(-538.982 -319.932)" opacity="0.1"/>
  <path id="Path_37" data-name="Path 37" d="M799.062,448.628h-2.245a125.049,125.049,0,0,0,1.139,20.354c1.548,11.283,5.531,37.169,5.531,37.169s-.443,4.867.885,6.416,1.549-.443,1.77,3.1,2.323,28.151,2.323,28.151,1.438,5.035-.111,6.141-4.646,7.08-2.434,7.965,17.478,1.991,18.142,1.327,0-42.257,0-42.257-.443-8.407-.885-8.85-2.434-6.416-1.77-7.743.221-5.31.221-5.974-1.991,0-.221-2.876,1.991-25.885,1.991-25.885,9.513-14.6,6.637-18.363Z" transform="translate(-559.175 -322.888)" fill="#d0cde1"/>
  <ellipse id="Ellipse_22" data-name="Ellipse 22" cx="14.602" cy="14.602" rx="14.602" ry="14.602" transform="translate(230.373 11.578)" fill="#ffb9b9"/>
  <path id="Path_38" data-name="Path 38" d="M814.672,226.365s-8.85,2.212-12.389,7.522l-3.1.664v3.1s-5.753,18.363-4.425,26.328,0,23.452-2.212,27.655-2.876,5.089-1.77,6.858,2.655,7.743,1.549,10.4,0,5.31,10.177,5.974,24.558.664,24.558-2.876-.885-13.5,0-16.151,1.327-4.425.885-6.859.885-29.646.885-29.646S829.053,232.117,814.672,226.365Z" transform="translate(-555.095 -184.697)" fill="#2f2e41"/>
  <path id="Path_39" data-name="Path 39" d="M764.24,408.9l-12.169,18.142s-12.832,11.726-8.186,17.036S760.7,428.593,760.7,428.593l13.275-15.044Z" transform="translate(-525.459 -298.871)" fill="#ffb9b9"/>
  <path id="Path_40" data-name="Path 40" d="M781.07,749.679s-.443-2.876-1.992-2.876-11.947,7.08-11.947,7.08-14.275,6.141-8.248,6.517c5.992.375,37.673,1.226,37.894.12s.663-12.015-.885-11.981-13.939,2.467-13.939,2.467Z" transform="translate(-534.546 -510.221)" fill="#2f2e41"/>
  <path id="Path_41" data-name="Path 41" d="M792.925,138.2a3.661,3.661,0,0,1-1.669.377c-.6.034-1.309,0-1.627-.51a2.326,2.326,0,0,1-.2-1.062,3.5,3.5,0,0,0-4.091-2.981,5.039,5.039,0,0,0,.652,2.076,4.44,4.44,0,0,1-3.9-.52l-.225,2.98a2.432,2.432,0,0,1-2.5-.084,1.386,1.386,0,0,1,.036-2.218c-.967-.2-2.15-.635-2.221-1.62-.065-.9.89-1.557,1.065-2.441.143-.721-.252-1.5.028-2.184.367-.893,1.7-1.122,1.969-2.05a8.038,8.038,0,0,0-.013-1.468c.123-1.282,1.734-1.814,3.02-1.741s2.689.414,3.781-.268a11,11,0,0,0,1.365-1.276,4.053,4.053,0,0,1,4.707-.409,7.993,7.993,0,0,0,1.545.963c1.18.4,2.411-.357,3.645-.531a3.028,3.028,0,0,1,2.539.735,2.078,2.078,0,0,1,.378,2.5,4.069,4.069,0,0,1,2.173.031,1.4,1.4,0,0,1,.888,1.751,2.263,2.263,0,0,0-.275.562c-.064.386.307.715.682.826s.782.09,1.149.224c1.516.555,1.152,2.979,2.346,4.067a9.491,9.491,0,0,0,1.294.791,3.149,3.149,0,0,1,1.11,3.8,3.485,3.485,0,0,0-.592,1.615c.068.813.938,1.258,1.549,1.8a3.6,3.6,0,0,1,.839,4.139c-.562,1.172-1.778,2.06-1.9,3.353-.054.562.115,1.123.106,1.688a3.479,3.479,0,0,1-1.5,2.626,7.778,7.778,0,0,1-2.87,1.194c-.483.115-1.058.3-1.174.778-.138.571.5,1.091.433,1.676a.972.972,0,0,1-.39.632,1.984,1.984,0,0,1-2.757-.864,5.752,5.752,0,0,1-.379-3.216l.3-3.973c.093-1.236.084-2.7-.924-3.426-1.114-.8-2.736-.152-4-.691-1.313-.562-1.784-2.207-1.731-3.634a21.285,21.285,0,0,0,.227-4.265c-.292-1.746-1.844-2.919-3.412-1.788C793.776,135.981,794.014,137.563,792.925,138.2Z" transform="translate(-546.911 -119.566)" fill="#2f2e41"/>
  <path id="Path_42" data-name="Path 42" d="M817.672,254.521s-8.85,3.54-8.85,11.062.442,17.478-1.106,20.8-2.876,4.425-1.991,7.08,2.434,2.212,0,4.2-2.212-1.328-2.434,1.991,2.213,3.761,0,5.31-7.965,7.744-5.531,9.735,8.85,8.407,11.063,5.973,3.318-8.628,6.416-8.186,3.54.664,3.1-1.549-2.434-2.212.221-2.876,3.761.885,2.877-1.327-1.549-3.1.221-5.531,2.655-3.1,2.433-5.531,4.867-24.337,4.867-24.337S830.5,252.752,817.672,254.521Z" transform="translate(-559.423 -202.235)" opacity="0.1"/>
  <path id="Path_43" data-name="Path 43" d="M811.174,253.34s-8.85,3.54-8.85,11.062.443,17.478-1.106,20.8-2.876,4.425-1.991,7.08,2.433,2.213,0,4.2-2.213-1.327-2.434,1.991,2.212,3.761,0,5.31-7.965,7.743-5.531,9.735,8.85,8.407,11.062,5.974,3.319-8.628,6.416-8.186,3.54.664,3.1-1.549-2.434-2.212.221-2.876,3.761.885,2.876-1.327-1.549-3.1.221-5.531,2.655-3.1,2.434-5.531,4.867-24.337,4.867-24.337S824.006,251.57,811.174,253.34Z" transform="translate(-555.358 -201.496)" opacity="0.1"/>
  <path id="Path_44" data-name="Path 44" d="M814.128,251.568s-8.85,3.54-8.85,11.062.443,17.478-1.106,20.8-2.876,4.425-1.991,7.08,2.433,2.212,0,4.2-2.213-1.327-2.434,1.991,2.212,3.761,0,5.31-7.965,7.744-5.531,9.735,8.85,8.407,11.062,5.973,3.319-8.628,6.416-8.186,3.54.664,3.1-1.549-2.433-2.212.221-2.876,3.761.885,2.876-1.327-1.548-3.1.221-5.531,2.655-3.1,2.433-5.531,4.867-24.337,4.867-24.337S826.96,249.8,814.128,251.568Z" transform="translate(-557.206 -200.387)" fill="#2f2e41"/>
  <line id="Line_9" data-name="Line 9" x1="202.241" transform="translate(103.368 250.554)" fill="none" stroke="#3f3d56" stroke-miterlimit="10" stroke-width="2"/>
  <rect id="Rectangle_34" data-name="Rectangle 34" width="26.216" height="2.451" transform="translate(111.233 179.021)" fill="#3f3d56"/>
  <rect id="Rectangle_35" data-name="Rectangle 35" width="26.216" height="2.451" transform="translate(111.233 184.536)" fill="#3f3d56"/>
  <rect id="Rectangle_36" data-name="Rectangle 36" width="26.216" height="2.451" transform="translate(111.233 190.052)" fill="#3f3d56"/>
  <path id="Path_45" data-name="Path 45" d="M517.359,592.648v35.846L486.35,646.371a35.756,35.756,0,1,0,31.008-53.723Z" transform="translate(-365.011 -413.8)" fill="#2f2e41"/>
  <ellipse id="Ellipse_23" data-name="Ellipse 23" cx="13.594" cy="13.594" rx="13.594" ry="13.594" transform="translate(138.661 201.007)" fill="#8f46bc"/>
</svg>
