<svg width="332" height="231" viewBox="0 0 332 231" fill="none" xmlns="http://www.w3.org/2000/svg">
<g clip-path="url(#clip0)">
<path opacity="0.1" d="M287.42 230.339C297.948 230.339 306.482 228.074 306.482 225.279C306.482 222.484 297.948 220.219 287.42 220.219C276.892 220.219 268.358 222.484 268.358 225.279C268.358 228.074 276.892 230.339 287.42 230.339Z" fill="#E79EBC"/>
<path opacity="0.1" d="M318.858 203.676C311.605 209.692 301.285 212.182 291.304 213.755L289.624 214.011C279.165 215.501 268.638 216.464 258.082 216.897C252.423 217.171 246.764 217.365 241.105 217.537L236.67 217.668C230.911 217.839 225.142 218.005 219.362 218.168C213.703 218.329 208.044 218.48 202.385 218.621C195.138 218.798 187.89 218.945 180.642 219.062C174.983 219.151 169.324 219.213 163.665 219.247C156.416 219.289 149.168 219.275 141.922 219.205C136.259 219.148 130.6 219.048 124.945 218.905C117.694 218.718 110.446 218.445 103.202 218.086C98.2853 217.846 93.372 217.557 88.462 217.219L86.225 217.061C65.147 215.55 43.687 212.823 25.244 204.21L24.744 203.975C24.497 203.859 24.25 203.743 24.002 203.621C20.6145 202.002 17.3697 200.1 14.302 197.935C8.84798 194.045 4.34498 189.297 1.96498 183.665C-1.76402 174.831 0.207982 164.901 4.46498 156.265C8.72198 147.629 15.119 139.83 20.65 131.696C22.27 129.313 23.807 126.841 25.237 124.306C34.172 108.406 38.604 90.015 29.237 74.697C28.0006 72.744 26.6655 70.8552 25.237 69.038C22.8627 66.1758 20.7926 63.0745 19.06 59.784C15.399 52.111 16.186 43.484 17.52 35.284C19.307 24.384 22.583 12.648 32.82 5.83899C43.444 -1.23201 58.52 -0.874013 71.71 1.66899C92.21 5.59799 111.133 13.821 130.234 21.237C149.335 28.653 169.344 35.437 190.345 36.165C194.856 36.3195 199.373 36.1554 203.861 35.674V35.674C209.844 35.0592 215.747 33.8164 221.47 31.966C229.735 29.244 237.256 25.148 242.832 19.456C254.791 7.28899 277.263 6.36899 293.466 13.717C308.927 20.728 318.926 35.567 318.187 50.388C317.347 66.888 304.992 80.45 293.671 94.362C292.298 96.048 290.943 97.74 289.623 99.443C288.89 100.394 288.167 101.347 287.455 102.302C286.213 103.988 285.013 105.683 283.881 107.402C278.097 116.202 274.007 126.762 277.99 136.257C280.224 141.574 284.49 145.63 289.624 149.172C301.136 157.104 317.024 162.441 324.174 173.545C330.343 183.11 328.062 196.028 318.858 203.676Z" fill="#E79EBC"/>
<g opacity="0.1">
<path opacity="0.1" d="M97.15 215.194C97.1468 215.395 97.1317 215.595 97.1049 215.794C95.4569 215.139 93.8376 214.437 92.2469 213.688C91.3994 213.577 90.611 213.194 90.0009 212.595C89.5343 212.359 89.0726 212.119 88.616 211.874C88.7194 211.656 88.8366 211.446 88.9669 211.243C89.3071 210.55 89.8399 209.969 90.5015 209.571C91.1631 209.173 91.9255 208.973 92.6973 208.997C93.4692 209.021 94.2178 209.267 94.8536 209.705C95.4893 210.144 95.9852 210.756 96.282 211.469C96.8972 212.611 97.1968 213.897 97.15 215.194V215.194Z" fill="#3F3D56"/>
<path opacity="0.1" d="M97.383 207.781C97.3537 209.079 96.9795 210.347 96.299 211.453C95.9269 212.122 95.3854 212.682 94.7287 213.075C94.0721 213.469 93.3235 213.683 92.558 213.696L92.258 213.672C91.4104 213.561 90.622 213.178 90.012 212.579C89.5975 212.186 89.2484 211.73 88.978 211.227C88.38 210.074 88.0874 208.788 88.128 207.49C88.1687 206.192 88.5411 204.926 89.21 203.813C89.5516 203.119 90.0857 202.538 90.7485 202.14C91.4113 201.742 92.1748 201.543 92.9477 201.566C93.7207 201.59 94.4704 201.836 95.1074 202.274C95.7444 202.713 96.2417 203.326 96.54 204.039C97.1495 205.189 97.4405 206.481 97.383 207.781V207.781Z" fill="#3F3D56"/>
<path opacity="0.1" d="M97.6291 200.383C97.7363 197.032 95.7485 194.249 93.1892 194.167C90.63 194.085 88.4683 196.735 88.3611 200.086C88.2539 203.437 90.2417 206.219 92.801 206.301C95.3602 206.383 97.5219 203.733 97.6291 200.383Z" fill="#3F3D56"/>
<path opacity="0.1" d="M97.8611 192.971C97.9683 189.62 95.9805 186.837 93.4212 186.755C90.862 186.673 88.7003 189.323 88.5931 192.674C88.4859 196.025 90.4737 198.807 93.033 198.889C95.5922 198.971 97.7539 196.321 97.8611 192.971Z" fill="#3F3D56"/>
<path opacity="0.1" d="M98.0951 185.556C98.2023 182.205 96.2145 179.422 93.6553 179.34C91.096 179.258 88.9343 181.908 88.8271 185.259C88.7199 188.61 90.7077 191.392 93.267 191.474C95.8263 191.556 97.9879 188.906 98.0951 185.556Z" fill="#3F3D56"/>
<path opacity="0.1" d="M77.709 134.126C77.1017 133.3 76.5514 132.433 76.062 131.532L88.298 129.906L75.13 129.606C73.9527 126.818 73.357 123.819 73.3795 120.792C73.4021 117.766 74.0423 114.776 75.261 112.006L92.634 121.725L76.724 109.235C78.3356 106.652 80.4615 104.428 82.9693 102.701C85.4771 100.974 88.3133 99.7821 91.3016 99.1982C94.2898 98.6143 97.3662 98.6513 100.34 99.307C103.313 99.9627 106.12 101.223 108.585 103.01C111.051 104.796 113.122 107.071 114.671 109.692C116.22 112.313 117.213 115.225 117.589 118.247C117.965 121.268 117.715 124.335 116.855 127.255C115.995 130.176 114.544 132.889 112.591 135.225C113.537 136.511 114.342 137.895 114.991 139.353L98.931 147.061L115.959 141.938C117.031 145.473 117.205 149.22 116.465 152.839C115.726 156.458 114.096 159.836 111.724 162.668C114.195 166.022 115.672 170.004 115.986 174.158C116.301 178.312 115.44 182.471 113.502 186.159C111.565 189.847 108.629 192.915 105.03 195.013C101.43 197.111 97.3137 198.154 93.1498 198.023C88.9859 197.892 84.943 196.591 81.4832 194.271C78.0234 191.95 75.2864 188.703 73.5851 184.9C71.8838 181.097 71.2868 176.893 71.8624 172.767C72.4379 168.641 74.1629 164.76 76.84 161.568C73.8869 157.56 72.3668 152.675 72.5241 147.699C72.6813 142.723 74.5067 137.944 77.707 134.13L77.709 134.126Z" fill="#E79EBC"/>
<path opacity="0.1" d="M116.906 149.095C116.757 154.073 114.931 158.856 111.726 162.668C114.197 166.022 115.674 170.004 115.988 174.158C116.303 178.312 115.442 182.471 113.504 186.159C111.567 189.847 108.631 192.915 105.032 195.013C101.432 197.111 97.3157 198.154 93.1518 198.023C88.9879 197.892 84.945 196.591 81.4852 194.271C78.0254 191.95 75.2884 188.703 73.5871 184.9C71.8858 181.097 71.2888 176.893 71.8644 172.767C72.44 168.641 74.1649 164.76 76.842 161.568C73.986 157.694 116.989 146.603 116.906 149.095Z" fill="black"/>
</g>
<g opacity="0.1">
<path opacity="0.1" d="M252.26 176.459C252.256 176.66 252.242 176.86 252.218 177.059C250.568 176.404 248.949 175.702 247.36 174.953C246.512 174.842 245.722 174.458 245.111 173.86C244.649 173.625 244.185 173.383 243.726 173.139C243.83 172.922 243.948 172.711 244.077 172.508C244.417 171.815 244.95 171.234 245.611 170.836C246.273 170.438 247.035 170.238 247.807 170.262C248.579 170.286 249.328 170.532 249.964 170.97C250.599 171.409 251.095 172.021 251.392 172.734C252.007 173.876 252.307 175.162 252.26 176.459V176.459Z" fill="#3F3D56"/>
<path opacity="0.1" d="M252.51 169.045C252.48 170.344 252.105 171.612 251.423 172.718C251.051 173.387 250.51 173.947 249.853 174.341C249.196 174.734 248.448 174.948 247.682 174.961L247.382 174.937C246.534 174.826 245.744 174.442 245.133 173.844C244.72 173.45 244.371 172.994 244.1 172.492C243.502 171.339 243.21 170.053 243.25 168.755C243.291 167.458 243.663 166.192 244.332 165.079C244.674 164.385 245.208 163.805 245.871 163.406C246.534 163.008 247.297 162.809 248.07 162.833C248.843 162.857 249.593 163.103 250.23 163.541C250.867 163.98 251.364 164.592 251.662 165.306C252.273 166.454 252.565 167.745 252.51 169.045V169.045Z" fill="#3F3D56"/>
<path opacity="0.1" d="M252.75 161.646C252.857 158.295 250.87 155.512 248.31 155.43C245.751 155.348 243.589 157.998 243.482 161.349C243.375 164.7 245.363 167.482 247.922 167.564C250.481 167.646 252.643 164.996 252.75 161.646Z" fill="#3F3D56"/>
<path opacity="0.1" d="M252.984 154.233C253.091 150.882 251.104 148.099 248.544 148.017C245.985 147.935 243.823 150.585 243.716 153.936C243.609 157.287 245.597 160.069 248.156 160.151C250.715 160.233 252.877 157.583 252.984 154.233Z" fill="#3F3D56"/>
<path opacity="0.1" d="M253.219 146.821C253.326 143.47 251.339 140.687 248.779 140.605C246.22 140.523 244.058 143.173 243.951 146.524C243.844 149.875 245.832 152.657 248.391 152.739C250.95 152.821 253.112 150.171 253.219 146.821Z" fill="#3F3D56"/>
<path opacity="0.1" d="M232.82 95.391C232.212 94.5658 231.663 93.699 231.176 92.797L243.412 91.186L230.244 90.867C229.067 88.0789 228.472 85.08 228.494 82.0538C228.516 79.0276 229.155 76.0377 230.372 73.267L247.745 82.986L231.834 70.497C233.446 67.9138 235.571 65.6897 238.079 63.963C240.587 62.2364 243.423 61.044 246.412 60.4601C249.4 59.8763 252.476 59.9133 255.45 60.569C258.423 61.2247 261.23 62.485 263.695 64.2715C266.161 66.0581 268.232 68.3327 269.781 70.954C271.33 73.5753 272.323 76.4872 272.699 79.5087C273.075 82.5302 272.825 85.5966 271.965 88.5175C271.105 91.4383 269.654 94.151 267.701 96.487C268.647 97.7725 269.452 99.1566 270.101 100.615L254.041 108.323L271.069 103.2C272.142 106.735 272.317 110.481 271.578 114.1C270.838 117.719 269.208 121.097 266.834 123.927C269.306 127.281 270.784 131.263 271.1 135.418C271.415 139.572 270.555 143.732 268.618 147.421C266.681 151.109 263.745 154.179 260.145 156.277C256.546 158.376 252.428 159.419 248.264 159.288C244.099 159.156 240.056 157.856 236.596 155.534C233.136 153.213 230.399 149.965 228.698 146.161C226.997 142.358 226.401 138.152 226.977 134.026C227.554 129.899 229.28 126.018 231.959 122.827C229.006 118.819 227.486 113.934 227.643 108.958C227.8 103.982 229.626 99.2028 232.826 95.389L232.82 95.391Z" fill="#E79EBC"/>
<path opacity="0.1" d="M272.019 110.361C271.87 115.339 270.044 120.121 266.837 123.931C269.309 127.285 270.786 131.267 271.102 135.421C271.417 139.576 270.557 143.735 268.619 147.424C266.682 151.112 263.746 154.181 260.146 156.279C256.547 158.378 252.43 159.421 248.265 159.29C244.101 159.158 240.058 157.858 236.598 155.537C233.138 153.216 230.401 149.968 228.7 146.165C226.999 142.361 226.402 138.156 226.979 134.03C227.555 129.903 229.281 126.023 231.959 122.831C229.101 118.96 272.101 107.865 272.019 110.361Z" fill="black"/>
</g>
<path d="M57.632 223.619C67.0098 223.619 74.612 222.158 74.612 220.355C74.612 218.552 67.0098 217.091 57.632 217.091C48.2542 217.091 40.652 218.552 40.652 220.355C40.652 222.158 48.2542 223.619 57.632 223.619Z" fill="#E79EBC"/>
<path d="M57.35 221.555C58.4424 221.555 59.328 220.396 59.328 218.967C59.328 217.538 58.4424 216.379 57.35 216.379C56.2576 216.379 55.372 217.538 55.372 218.967C55.372 220.396 56.2576 221.555 57.35 221.555Z" fill="#3F3D56"/>
<path d="M57.35 218.392C58.4424 218.392 59.328 217.233 59.328 215.804C59.328 214.375 58.4424 213.216 57.35 213.216C56.2576 213.216 55.372 214.375 55.372 215.804C55.372 217.233 56.2576 218.392 57.35 218.392Z" fill="#3F3D56"/>
<path d="M57.35 215.229C58.4424 215.229 59.328 214.07 59.328 212.641C59.328 211.212 58.4424 210.053 57.35 210.053C56.2576 210.053 55.372 211.212 55.372 212.641C55.372 214.07 56.2576 215.229 57.35 215.229Z" fill="#3F3D56"/>
<path d="M57.35 212.066C58.4424 212.066 59.328 210.907 59.328 209.478C59.328 208.049 58.4424 206.89 57.35 206.89C56.2576 206.89 55.372 208.049 55.372 209.478C55.372 210.907 56.2576 212.066 57.35 212.066Z" fill="#3F3D56"/>
<path d="M57.35 208.903C58.4424 208.903 59.328 207.744 59.328 206.315C59.328 204.886 58.4424 203.727 57.35 203.727C56.2576 203.727 55.372 204.886 55.372 206.315C55.372 207.744 56.2576 208.903 57.35 208.903Z" fill="#3F3D56"/>
<path d="M57.35 205.74C58.4424 205.74 59.328 204.581 59.328 203.152C59.328 201.723 58.4424 200.564 57.35 200.564C56.2576 200.564 55.372 201.723 55.372 203.152C55.372 204.581 56.2576 205.74 57.35 205.74Z" fill="#3F3D56"/>
<path d="M57.35 202.577C58.4424 202.577 59.328 201.418 59.328 199.989C59.328 198.56 58.4424 197.401 57.35 197.401C56.2576 197.401 55.372 198.56 55.372 199.989C55.372 201.418 56.2576 202.577 57.35 202.577Z" fill="#3F3D56"/>
<path d="M64.75 178.341C65.0196 177.997 65.2655 177.635 65.486 177.257L60.292 176.402L65.909 176.447C66.4477 175.274 66.7417 174.003 66.773 172.713C66.8043 171.422 66.5722 170.139 66.091 168.941L58.553 172.852L65.505 167.732C64.8527 166.608 63.9763 165.631 62.9301 164.86C61.8839 164.09 60.6904 163.543 59.4238 163.254C58.1572 162.964 56.8446 162.938 55.5676 163.178C54.2907 163.418 53.0766 163.917 52.0011 164.646C50.9255 165.375 50.0114 166.317 49.3156 167.415C48.6198 168.512 48.1572 169.74 47.9565 171.024C47.7559 172.308 47.8215 173.619 48.1493 174.876C48.4771 176.133 49.0601 177.31 49.862 178.332C49.4419 178.868 49.0806 179.447 48.784 180.06L55.527 183.56L48.337 181.147C47.8318 182.639 47.7067 184.234 47.973 185.787C48.2392 187.34 48.8885 188.802 49.862 190.041C48.7634 191.438 48.0801 193.116 47.8902 194.884C47.7003 196.651 48.0115 198.436 48.7882 200.035C49.5649 201.633 50.7758 202.981 52.2824 203.924C53.789 204.868 55.5306 205.368 57.308 205.368C59.0854 205.368 60.827 204.868 62.3336 203.924C63.8402 202.981 65.0511 201.633 65.8278 200.035C66.6045 198.436 66.9157 196.651 66.7258 194.884C66.5359 193.116 65.8526 191.438 64.754 190.041C66.0661 188.371 66.7794 186.309 66.7794 184.186C66.7794 182.062 66.0661 180 64.754 178.33L64.75 178.341Z" fill="#E79EBC"/>
<path opacity="0.1" d="M47.836 184.197C47.8323 186.321 48.5458 188.385 49.861 190.053C48.7624 191.45 48.0791 193.128 47.8892 194.896C47.6993 196.663 48.0105 198.448 48.7872 200.047C49.5639 201.645 50.7748 202.993 52.2814 203.936C53.788 204.879 55.5296 205.38 57.307 205.38C59.0844 205.38 60.8259 204.879 62.3326 203.936C63.8392 202.993 65.05 201.645 65.8267 200.047C66.6035 198.448 66.9147 196.663 66.7248 194.896C66.5349 193.128 65.8516 191.45 64.753 190.053C66.016 188.446 47.836 183.134 47.836 184.197Z" fill="black"/>
<path d="M103.202 150.755V218.068C98.2853 217.828 93.372 217.539 88.462 217.201L86.225 217.043V150.755C86.225 150.058 86.5018 149.39 86.9944 148.897C87.4871 148.405 88.1553 148.128 88.852 148.128H100.575C101.272 148.128 101.94 148.405 102.433 148.897C102.925 149.39 103.202 150.058 103.202 150.755V150.755Z" fill="#3F3D56"/>
<path d="M124.945 218.905V105.78C124.945 105.083 125.222 104.415 125.714 103.922C126.207 103.43 126.875 103.153 127.572 103.153H139.295C139.992 103.153 140.66 103.43 141.153 103.922C141.645 104.415 141.922 105.083 141.922 105.78V219.2L124.945 218.905Z" fill="#3F3D56"/>
<path d="M163.665 219.26V129.31C163.665 128.613 163.942 127.945 164.434 127.452C164.927 126.96 165.595 126.683 166.292 126.683H178.015C178.712 126.683 179.38 126.96 179.872 127.452C180.365 127.945 180.642 128.613 180.642 129.31V219.066L163.665 219.26Z" fill="#3F3D56"/>
<path d="M219.362 62.592V218.172C213.703 218.333 208.044 218.484 202.385 218.625V62.592C202.385 61.8953 202.662 61.2271 203.154 60.7344C203.647 60.2418 204.315 59.965 205.012 59.965H216.735C217.432 59.965 218.1 60.2418 218.593 60.7344C219.085 61.2271 219.362 61.8953 219.362 62.592V62.592Z" fill="#3F3D56"/>
<path d="M258.082 93.866V216.876C252.423 217.15 246.764 217.344 241.105 217.516V93.866C241.105 93.1693 241.382 92.5011 241.874 92.0084C242.367 91.5158 243.035 91.239 243.732 91.239H255.455C256.152 91.239 256.82 91.5158 257.312 92.0084C257.805 92.5011 258.082 93.1693 258.082 93.866V93.866Z" fill="#3F3D56"/>
<path d="M94.863 111.498L133.583 68.31L172.303 90.053L211.023 23.336L249.743 55.206" stroke="#3F3D56" stroke-width="7" stroke-miterlimit="10" stroke-linecap="round"/>
<path d="M94.714 119.839C99.32 119.839 103.054 116.105 103.054 111.499C103.054 106.893 99.32 103.159 94.714 103.159C90.1079 103.159 86.374 106.893 86.374 111.499C86.374 116.105 90.1079 119.839 94.714 119.839Z" fill="#E79EBC"/>
<path d="M133.434 76.651C138.04 76.651 141.774 72.917 141.774 68.311C141.774 63.7049 138.04 59.971 133.434 59.971C128.828 59.971 125.094 63.7049 125.094 68.311C125.094 72.917 128.828 76.651 133.434 76.651Z" fill="#E79EBC"/>
<path d="M172.154 98.394C176.76 98.394 180.494 94.66 180.494 90.054C180.494 85.4479 176.76 81.714 172.154 81.714C167.548 81.714 163.814 85.4479 163.814 90.054C163.814 94.66 167.548 98.394 172.154 98.394Z" fill="#E79EBC"/>
<path d="M210.874 31.677C215.48 31.677 219.214 27.943 219.214 23.337C219.214 18.7309 215.48 14.997 210.874 14.997C206.268 14.997 202.534 18.7309 202.534 23.337C202.534 27.943 206.268 31.677 210.874 31.677Z" fill="#E79EBC"/>
<path d="M285.336 102.564C289.942 102.564 293.676 98.83 293.676 94.224C293.676 89.6179 289.942 85.884 285.336 85.884C280.73 85.884 276.996 89.6179 276.996 94.224C276.996 98.83 280.73 102.564 285.336 102.564Z" fill="#E79EBC"/>
<path opacity="0.1" d="M69.6 212.873C72.6729 212.873 75.164 212.452 75.164 211.932C75.164 211.412 72.6729 210.991 69.6 210.991C66.5271 210.991 64.036 211.412 64.036 211.932C64.036 212.452 66.5271 212.873 69.6 212.873Z" fill="#E79EBC"/>
<path d="M65.865 207.563C65.865 207.563 69.037 207.463 69.993 206.783C70.949 206.103 74.875 205.294 75.113 206.383C75.351 207.472 79.879 211.816 76.304 211.845C72.729 211.874 67.979 211.285 67.026 210.704C66.073 210.123 65.865 207.563 65.865 207.563Z" fill="#A8A8A8"/>
<path opacity="0.2" d="M76.361 211.462C72.787 211.492 68.039 210.905 67.083 210.324C66.356 209.88 66.067 208.293 65.969 207.56H65.869C65.869 207.56 66.069 210.119 67.025 210.699C67.981 211.279 72.72 211.869 76.303 211.84C77.337 211.84 77.694 211.465 77.673 210.92C77.526 211.25 77.132 211.456 76.361 211.462Z" fill="black"/>
<path opacity="0.1" d="M316.848 221.643C322.492 221.643 327.067 220.869 327.067 219.915C327.067 218.961 322.492 218.187 316.848 218.187C311.204 218.187 306.629 218.961 306.629 219.915C306.629 220.869 311.204 221.643 316.848 221.643Z" fill="#E79EBC"/>
<path d="M309.994 211.888C309.994 211.888 315.823 211.709 317.58 210.458C319.337 209.207 326.545 207.715 326.98 209.719C327.415 211.723 335.743 219.697 329.16 219.75C322.577 219.803 313.869 218.725 312.114 217.665C310.359 216.605 309.994 211.888 309.994 211.888Z" fill="#A8A8A8"/>
<path opacity="0.2" d="M329.27 219.054C322.688 219.108 313.978 218.029 312.224 216.969C310.89 216.156 310.356 213.237 310.178 211.906H309.984C309.984 211.906 310.353 216.606 312.105 217.675C313.857 218.744 322.571 219.823 329.151 219.76C331.051 219.76 331.707 219.069 331.671 218.068C331.406 218.664 330.682 219.042 329.27 219.054Z" fill="black"/>
<path d="M253.051 99.338C253.107 99.8602 253.316 100.354 253.651 100.759C254.136 101.194 254.699 101.533 255.31 101.759C256.811 102.529 257.957 103.849 258.51 105.443C259.502 108.343 259.63 111.4 260.893 114.194C262.156 116.988 263.639 119.671 264.729 122.534C265.253 124.19 265.93 125.793 266.751 127.323C267.191 128.049 267.752 128.695 268.41 129.232C268.342 130.28 268.31 131.317 268.321 132.365C268.522 132.361 268.721 132.408 268.899 132.502C269.078 132.596 269.229 132.733 269.34 132.901C269.56 133.241 269.712 133.62 269.787 134.018C270.195 135.707 269.687 137.506 270.058 139.203C271.064 143.925 270.755 148.833 269.164 153.392C268.756 154.548 268.244 158.372 268.679 159.519C270.299 159.355 271.735 160.35 273.251 161.008C273.374 161.907 273.301 162.821 273.037 163.689C272.582 165.292 272.402 166.961 272.504 168.624L272.579 180.913C272.52 182.473 272.658 184.034 272.99 185.559C273.434 187.259 274.366 188.993 274.336 190.75C274.256 194.533 276.043 198.137 275.9 201.889C275.873 202.61 275.775 203.325 275.706 204.039C275.53 205.943 275.578 207.862 275.849 209.755C276.391 213.526 277.824 217.234 277.466 221.026C277.442 221.282 277.356 221.626 277.114 221.72C277.414 222.057 277.728 222.39 278.049 222.709C277.984 222.818 277.895 222.91 277.79 222.98C277.438 223.165 277.049 223.267 276.652 223.28C276.187 223.293 275.735 223.439 275.352 223.703C275.073 223.971 274.884 224.318 274.81 224.698C274.704 225.073 274.681 225.467 274.743 225.851C274.804 226.236 274.949 226.603 275.167 226.926C275.433 227.261 275.781 227.522 276.177 227.683C277.553 228.283 279.132 227.847 280.567 227.412L286.19 225.712C286.533 225.64 286.849 225.475 287.104 225.235C287.22 225.097 287.297 224.931 287.327 224.753C288.635 224.939 289.968 224.785 291.199 224.306L296.822 222.599C297.165 222.529 297.482 222.364 297.736 222.122C297.837 221.999 297.91 221.855 297.95 221.7C297.989 221.546 297.994 221.385 297.965 221.228C298.007 221.21 298.048 221.198 298.09 221.177C298.519 220.983 298.983 220.605 298.879 220.15C298.804 219.85 298.507 219.679 298.379 219.405C298.319 219.227 298.306 219.036 298.343 218.852C298.379 218.667 298.463 218.496 298.587 218.354C298.807 218.054 299.105 217.809 299.308 217.496C299.957 216.501 299.516 215.196 299.272 214.029C298.745 211.542 299.233 208.945 298.9 206.429C298.787 205.58 298.581 204.746 298.417 203.903C298.07 201.911 297.84 199.9 297.729 197.881C297.515 194.998 296.713 192.156 297.172 189.297C297.395 187.619 297.489 185.926 297.455 184.234C297.487 183.156 297.441 182.076 297.315 181.005C297.199 180.205 296.993 179.423 296.904 178.622C296.831 177.722 296.815 176.817 296.856 175.915C296.897 173.903 296.711 171.893 296.302 169.922C295.702 167.215 294.586 164.622 294.11 161.91C294.271 161.946 294.432 161.982 294.587 162.023C294.605 159.938 292.779 155.405 292.103 153.423C292.004 153.181 291.944 152.925 291.924 152.664C291.965 152.32 292.028 151.978 292.112 151.642C292.071 150.919 291.937 150.204 291.712 149.515C291.671 149.008 291.708 148.498 291.822 148.002C292.302 145.336 292.897 142.691 293.493 140.05C293.753 139.093 293.842 138.098 293.758 137.11C293.689 136.586 293.733 136.054 293.887 135.549C294.041 135.044 294.302 134.578 294.652 134.182C294.914 133.941 295.137 133.66 295.313 133.351C295.412 133.086 295.457 132.803 295.444 132.52C295.432 131.295 295.252 130.077 294.908 128.901C295.388 127.888 295.683 126.798 295.778 125.681C296.169 123.254 296.387 120.803 296.433 118.345C296.459 117.034 296.279 115.727 295.897 114.473C295.618 113.698 295.277 112.947 294.878 112.227C293.409 109.127 291.724 106.134 289.835 103.271C289.235 102.431 289.615 101.271 289.656 100.236C289.608 98.9825 289.289 97.7542 288.721 96.636C288.473 95.9284 288.093 95.2745 287.601 94.709C287.435 94.5251 287.233 94.377 287.008 94.2738C286.783 94.1707 286.539 94.1146 286.291 94.109C286.01 94.1429 285.74 94.2368 285.498 94.3843C285.256 94.5318 285.049 94.7295 284.891 94.964C284.531 95.4546 284.271 96.0118 284.128 96.6032C283.984 97.1947 283.959 97.8088 284.054 98.41C284.252 99.6133 284.776 100.739 285.57 101.665C285.953 102.131 286.393 102.548 286.878 102.907C287.371 104.472 287.867 106.035 288.367 107.598C289.096 110.101 289.992 112.553 291.048 114.937C291.425 115.593 291.67 116.317 291.769 117.067C291.734 117.881 291.541 118.68 291.2 119.42C290.629 121.015 290.306 122.689 290.241 124.382C290.154 124.421 290.07 124.466 289.991 124.519C289.053 125.133 288.758 126.47 287.781 127.019C287.172 127.256 286.532 127.406 285.881 127.463C285.821 127.471 285.763 127.487 285.708 127.511C285.684 127.392 285.66 127.276 285.645 127.154C285.636 127.078 285.636 127.001 285.645 126.925C287.163 126.09 288.438 124.875 289.345 123.399C289.536 123.125 289.684 122.824 289.783 122.505C289.864 122.123 289.879 121.73 289.828 121.343C289.778 120.052 289.594 118.769 289.277 117.516C288.959 116.257 288.264 115.125 287.284 114.272C286.795 113.879 286.233 113.584 285.747 113.188C284.8 112.423 284.147 111.288 283.066 110.722C282.376 110.386 281.589 110.307 280.846 110.499C280.103 110.691 279.453 111.142 279.012 111.77C278.866 112.061 278.662 112.319 278.412 112.527C278.222 112.617 278.037 112.718 277.858 112.827C277.713 112.981 277.614 113.172 277.572 113.38C277.53 113.587 277.546 113.802 277.62 114C277.823 114.839 277.937 115.696 277.96 116.559C276.999 117.687 276.469 119.12 276.466 120.602C276.463 122.084 276.986 123.519 277.942 124.651C277.942 125.205 277.942 125.759 277.921 126.313C277.924 126.419 277.917 126.525 277.9 126.629C277.556 126.508 277.248 126.302 277.006 126.029C276.672 125.612 276.613 124.998 276.206 124.656C275.912 124.463 275.578 124.34 275.229 124.299C274.361 124.102 273.548 123.716 272.846 123.17C272.345 122.678 271.742 122.303 271.08 122.07C269.97 119.988 268.674 118.01 267.208 116.161C266.836 115.723 266.497 115.258 266.195 114.77C265.662 113.596 265.248 112.371 264.959 111.115C263.827 107.684 261.003 104.932 260.316 101.381C259.924 100.121 259.377 98.915 258.69 97.789C258.388 96.9512 257.849 96.2194 257.138 95.683C256.634 95.4141 256.057 95.3156 255.493 95.4021C254.929 95.4886 254.408 95.7556 254.008 96.163C253.616 96.5839 253.327 97.089 253.161 97.6394C252.995 98.1898 252.957 98.7708 253.051 99.338V99.338ZM288.412 219.874C288.06 220.059 287.671 220.161 287.274 220.174C287.072 220.196 286.872 220.23 286.674 220.274C286.6 219.649 286.558 219.014 286.51 218.398C286.352 216.376 286.036 214.368 285.724 212.364C285.519 210.21 285.121 208.078 284.533 205.996C283.392 202.738 282.233 199.381 282.383 195.929C282.416 195.146 282.514 194.368 282.556 193.588C282.656 191.655 282.38 189.68 282.856 187.801C283.067 186.946 283.428 186.13 283.565 185.26C283.652 184.475 283.662 183.682 283.595 182.895C283.465 180.162 283.692 177.423 284.271 174.749C284.768 175.518 285.075 176.394 285.165 177.305L286.282 183.363C286.946 186.958 287.533 190.77 289.293 193.969C288.939 195.1 288.91 196.308 289.21 197.454C289.386 197.931 289.675 198.348 289.853 198.83C290.073 199.656 290.19 200.507 290.199 201.362C290.393 203.149 291.131 204.906 290.589 206.631C290.031 208.409 289.669 210.243 289.508 212.099C289.478 212.615 289.418 213.13 289.329 213.639C289.229 214.098 289.079 214.533 288.993 215.003C288.874 215.663 288.903 216.342 289.079 216.99C289.213 217.349 289.295 217.725 289.323 218.107C289.323 218.488 288.856 218.762 288.48 218.822C288.59 218.965 288.709 219.102 288.831 219.236C288.758 219.486 288.612 219.708 288.412 219.874V219.874Z" fill="url(#paint0_linear)"/>
<path d="M276.65 223.31C276.185 223.322 275.733 223.469 275.35 223.733C275.07 223.998 274.88 224.344 274.808 224.722C274.702 225.094 274.679 225.485 274.741 225.867C274.803 226.248 274.948 226.612 275.165 226.932C275.431 227.266 275.779 227.526 276.175 227.686C277.551 228.286 279.129 227.847 280.565 227.415L286.184 225.723C286.527 225.653 286.843 225.489 287.098 225.249C287.253 225.04 287.339 224.789 287.343 224.529C287.347 224.269 287.27 224.015 287.122 223.801C286.82 223.381 286.408 223.052 285.931 222.851C284.151 222.085 282.226 221.717 280.29 221.77C279.575 221.77 278.869 221.597 278.384 222.148C278.128 222.448 278.176 222.765 277.784 223.018C277.432 223.198 277.045 223.297 276.65 223.31Z" fill="#3F3D56"/>
<path d="M287.275 220.219C286.81 220.233 286.359 220.38 285.975 220.642C285.696 220.907 285.506 221.253 285.433 221.631C285.327 222.004 285.305 222.395 285.366 222.777C285.428 223.159 285.573 223.523 285.79 223.844C286.057 224.176 286.405 224.435 286.8 224.595C288.179 225.195 289.755 224.759 291.19 224.327L296.813 222.632C297.156 222.562 297.472 222.398 297.727 222.158C297.882 221.95 297.967 221.699 297.971 221.439C297.976 221.18 297.899 220.926 297.751 220.713C297.449 220.293 297.037 219.964 296.56 219.763C294.779 218.997 292.854 218.627 290.916 218.679C290.201 218.679 289.498 218.509 289.01 219.06C288.754 219.36 288.802 219.674 288.41 219.927C288.058 220.11 287.669 220.21 287.272 220.219H287.275Z" fill="#3F3D56"/>
<path d="M282.387 159.191C285.701 158.858 289.035 158.764 292.362 158.911C292.581 158.908 292.8 158.942 293.008 159.011C293.741 159.311 293.854 160.268 293.922 161.051C294.222 164.232 295.608 167.196 296.305 170.311C296.714 172.269 296.9 174.268 296.859 176.268C296.819 177.162 296.835 178.057 296.907 178.949C296.996 179.749 297.207 180.525 297.318 181.317C297.444 182.381 297.49 183.454 297.458 184.525C297.492 186.205 297.397 187.885 297.175 189.55C296.716 192.389 297.518 195.209 297.732 198.08C297.839 200.088 298.065 202.088 298.408 204.07C298.572 204.907 298.777 205.735 298.89 206.578C299.223 209.078 298.735 211.662 299.262 214.134C299.506 215.29 299.947 216.588 299.298 217.577C299.098 217.877 298.798 218.128 298.577 218.429C298.453 218.569 298.369 218.74 298.333 218.924C298.296 219.107 298.309 219.297 298.369 219.474C298.497 219.745 298.795 219.924 298.869 220.213C298.985 220.669 298.509 221.041 298.08 221.235C296.442 221.93 294.623 222.075 292.896 221.649C291.169 221.222 289.627 220.247 288.501 218.87C288.876 218.81 289.335 218.539 289.344 218.158C289.315 217.779 289.233 217.406 289.1 217.05C288.925 216.407 288.895 215.734 289.014 215.078C289.1 214.619 289.255 214.184 289.351 213.723C289.44 213.217 289.5 212.705 289.53 212.192C289.691 210.347 290.054 208.525 290.611 206.759C291.153 205.046 290.411 203.313 290.221 201.526C290.211 200.676 290.095 199.83 289.876 199.009C289.697 198.538 289.408 198.116 289.233 197.645C288.933 196.506 288.962 195.305 289.316 194.181C287.556 191.003 286.969 187.214 286.305 183.643L285.188 177.627C285.089 176.723 284.783 175.853 284.294 175.086C283.715 177.742 283.488 180.463 283.618 183.179C283.685 183.961 283.675 184.749 283.588 185.529C283.451 186.393 283.088 187.206 282.879 188.052C282.417 189.919 282.688 191.879 282.579 193.8C282.537 194.577 282.439 195.349 282.406 196.126C282.26 199.557 283.416 202.893 284.556 206.126C285.136 208.195 285.535 210.311 285.747 212.449C286.047 214.442 286.375 216.434 286.533 218.449C286.679 220.296 286.745 222.294 287.894 223.749C286.886 224.497 285.743 225.045 284.528 225.36C283.095 225.585 281.628 225.302 280.382 224.56C279.143 223.819 278.036 222.878 277.106 221.775C277.347 221.692 277.434 221.34 277.458 221.087C277.815 217.316 276.383 213.641 275.841 209.887C275.57 208.007 275.522 206.101 275.698 204.21C275.766 203.498 275.865 202.786 275.892 202.072C276.035 198.346 274.239 194.757 274.304 191.028C274.334 189.28 273.41 187.558 272.958 185.869C272.63 184.353 272.492 182.802 272.547 181.252L272.472 169.04C272.38 167.388 272.56 165.733 273.005 164.14C273.66 162.264 272.905 160.11 272.797 158.127C275.892 159.108 279.15 159.471 282.385 159.196L282.387 159.191Z" fill="#696791"/>
<path d="M271.769 124.104C270.517 121.544 268.988 119.13 267.209 116.904C266.837 116.469 266.499 116.007 266.196 115.522C265.664 114.356 265.25 113.14 264.96 111.891C263.828 108.484 261.005 105.746 260.317 102.223C259.922 100.97 259.376 99.7698 258.691 98.649C258.389 97.8168 257.85 97.0917 257.139 96.564C256.636 96.2954 256.059 96.1967 255.495 96.2827C254.931 96.3686 254.41 96.6346 254.009 97.041C253.619 97.4563 253.33 97.9556 253.164 98.5004C252.998 99.0451 252.959 99.6208 253.05 100.183C253.107 100.702 253.316 101.194 253.65 101.595C254.135 102.029 254.698 102.369 255.309 102.595C256.808 103.357 257.954 104.668 258.509 106.255C259.501 109.129 259.629 112.173 260.892 114.949C262.155 117.725 263.638 120.388 264.728 123.226C265.256 124.873 265.933 126.468 266.75 127.992C267.163 128.753 267.739 129.413 268.438 129.925C269.136 130.437 269.939 130.788 270.789 130.953C270.777 129.873 270.941 128.799 271.274 127.772C271.647 126.597 272.308 125.215 271.769 124.104Z" fill="#A0616A"/>
<path d="M290.208 126.331C290.132 124.225 290.46 122.124 291.176 120.142C291.511 119.406 291.705 118.612 291.745 117.804C291.646 117.057 291.401 116.338 291.024 115.686C289.958 113.324 289.062 110.888 288.343 108.398L286.854 103.737C286.369 103.381 285.93 102.966 285.547 102.501C284.753 101.583 284.228 100.463 284.031 99.266C283.936 98.6691 283.961 98.0592 284.105 97.4721C284.249 96.885 284.508 96.3325 284.868 95.847C285.027 95.6133 285.234 95.4164 285.476 95.2694C285.717 95.1225 285.987 95.0289 286.268 94.995C286.516 95.0011 286.759 95.0574 286.985 95.1606C287.21 95.2637 287.412 95.4115 287.578 95.595C288.069 96.1555 288.449 96.8043 288.698 97.507C289.266 98.6162 289.585 99.8359 289.633 101.081C289.591 102.112 289.207 103.261 289.812 104.098C291.701 106.942 293.386 109.916 294.855 112.998C295.255 113.713 295.595 114.459 295.874 115.229C296.257 116.477 296.438 117.778 296.41 119.083C296.358 121.524 296.139 123.959 295.755 126.371C295.543 127.887 295.266 129.537 294.12 130.541C292.992 128.984 291.679 127.57 290.208 126.331V126.331Z" fill="#A0616A"/>
<path d="M282.631 127.493C286.044 127.493 288.811 124.726 288.811 121.313C288.811 117.9 286.044 115.133 282.631 115.133C279.218 115.133 276.451 117.9 276.451 121.313C276.451 124.726 279.218 127.493 282.631 127.493Z" fill="#A0616A"/>
<path d="M285.625 127.82C285.853 128.928 286.306 129.977 286.956 130.903C287.307 131.503 287.756 132.133 288.445 132.203C286.654 133.143 284.773 133.899 282.83 134.461C282.17 134.683 281.478 134.795 280.781 134.792C280.191 134.748 279.613 134.6 279.074 134.354C277.896 133.84 276.85 133.066 276.014 132.089C275.179 131.112 274.577 129.958 274.253 128.714C275.024 128.735 275.794 128.676 276.553 128.538C276.986 128.505 277.389 128.306 277.679 127.984C277.852 127.682 277.932 127.336 277.911 126.989C277.941 125.958 277.944 124.925 277.911 123.894C279.429 123.797 280.953 123.985 282.402 124.448C283.002 124.642 283.593 124.874 284.189 125.026C284.564 125.126 285.598 125.026 285.875 125.243C286.328 125.551 285.521 127.061 285.625 127.82Z" fill="#A0616A"/>
<path d="M282.908 131.577C282.976 130.763 283.298 129.991 283.829 129.37C284.361 128.749 285.074 128.311 285.868 128.119C286.519 128.062 287.159 127.914 287.768 127.678C288.745 127.133 289.04 125.805 289.978 125.194C290.477 124.933 291.048 124.841 291.604 124.931C292.16 125.021 292.672 125.289 293.064 125.694C293.828 126.528 294.365 127.544 294.625 128.645C295.122 130.099 295.392 131.621 295.425 133.157C295.437 133.438 295.393 133.719 295.294 133.982C295.117 134.289 294.894 134.568 294.633 134.807C294.283 135.199 294.023 135.662 293.868 136.164C293.714 136.667 293.67 137.196 293.739 137.717C293.824 138.698 293.734 139.686 293.474 140.636C292.874 143.263 292.283 145.887 291.803 148.536C291.691 149.024 291.653 149.526 291.693 150.025C291.912 150.711 292.046 151.421 292.093 152.14C292.008 152.474 291.946 152.814 291.905 153.156C291.924 153.415 291.985 153.67 292.084 153.91C292.76 155.873 294.584 160.37 294.568 162.449C290.907 161.713 287.177 161.374 283.443 161.439C282.541 161.429 281.64 161.469 280.743 161.558C278.589 161.79 276.386 162.419 274.298 161.838C272.359 161.299 270.643 159.753 268.639 159.947C268.204 158.809 268.716 155.012 269.125 153.862C270.716 149.334 271.025 144.454 270.018 139.762C269.652 138.076 270.155 136.286 269.747 134.612C269.672 134.216 269.52 133.838 269.3 133.501C269.189 133.333 269.037 133.197 268.859 133.103C268.681 133.01 268.482 132.964 268.281 132.968C268.244 130.275 268.494 127.587 269.026 124.947C269.226 124.009 269.626 122.901 270.584 122.74C271.436 122.594 272.151 123.315 272.836 123.84C273.538 124.384 274.352 124.766 275.219 124.96C275.568 125.001 275.902 125.124 276.196 125.317C276.604 125.657 276.664 126.267 276.996 126.681C277.596 127.423 278.923 127.36 279.346 128.215C279.438 128.469 279.513 128.73 279.569 128.995C279.769 129.503 280.11 129.943 280.552 130.264C281.215 130.887 282.023 131.337 282.902 131.574L282.908 131.577Z" fill="#F86D70"/>
<path d="M277.61 114.742C277.537 114.544 277.52 114.33 277.562 114.124C277.604 113.918 277.703 113.727 277.848 113.574C278.012 113.446 278.226 113.398 278.402 113.274C278.651 113.066 278.855 112.81 279.002 112.52C279.446 111.898 280.097 111.453 280.838 111.265C281.579 111.077 282.363 111.157 283.05 111.492C284.125 112.055 284.775 113.181 285.731 113.94C286.216 114.333 286.779 114.625 287.268 115.018C288.246 115.863 288.942 116.988 289.261 118.241C289.578 119.485 289.762 120.758 289.812 122.041C289.863 122.426 289.848 122.817 289.767 123.197C289.668 123.516 289.52 123.817 289.329 124.091C288.38 125.626 287.032 126.873 285.429 127.701C284.624 128.103 283.739 128.319 282.839 128.335C281.939 128.35 281.047 128.164 280.229 127.79C280.067 127.725 279.928 127.614 279.829 127.471C279.738 127.253 279.717 127.013 279.767 126.783C279.854 125.873 279.674 124.957 279.249 124.147C278.949 123.547 278.504 123.039 278.266 122.423C278.044 121.733 277.949 121.008 277.986 120.284C278.084 118.428 277.958 116.567 277.61 114.742V114.742Z" fill="#2D293D"/>
</g>
<defs>
<linearGradient id="paint0_linear" x1="282.247" y1="161.043" x2="328.846" y2="161.043" gradientUnits="userSpaceOnUse">
<stop stop-color="#808080" stop-opacity="0.251"/>
<stop offset="0.54" stop-color="#808080" stop-opacity="0.122"/>
<stop offset="1" stop-color="#808080" stop-opacity="0.102"/>
</linearGradient>
<clipPath id="clip0">
<rect width="331.684" height="230.339" fill="white"/>
</clipPath>
</defs>
</svg>
