<svg xmlns="http://www.w3.org/2000/svg" width="326.01" height="250.295" viewBox="0 0 326.01 250.295">
  <g id="undraw_pie_graph_x9dy" transform="translate(0 1)">
    <rect id="Rectangle_37" data-name="Rectangle 37" width="315.176" height="200.946" transform="translate(0 8.978)" fill="#f1f1f1"/>
    <rect id="Rectangle_38" data-name="Rectangle 38" width="315.176" height="200.946" transform="translate(9.834 0)" fill="none" stroke="#3f3d56" stroke-miterlimit="10" stroke-width="2"/>
    <line id="Line_10" data-name="Line 10" x2="315.176" transform="translate(9.834 10.726)" fill="none" stroke="#3f3d56" stroke-miterlimit="10" stroke-width="2"/>
    <ellipse id="Ellipse_24" data-name="Ellipse 24" cx="2.993" cy="2.993" rx="2.993" ry="2.993" transform="translate(14.964 2.565)" fill="#8f46bc"/>
    <ellipse id="Ellipse_25" data-name="Ellipse 25" cx="2.993" cy="2.993" rx="2.993" ry="2.993" transform="translate(23.942 2.565)" fill="#8f46bc"/>
    <ellipse id="Ellipse_26" data-name="Ellipse 26" cx="2.993" cy="2.993" rx="2.993" ry="2.993" transform="translate(32.921 2.565)" fill="#8f46bc"/>
    <path id="Path_46" data-name="Path 46" d="M650.691,345.69a55.847,55.847,0,0,0-39.49-95.337V306.2Z" transform="translate(-447.792 -209.157)" fill="#3f3d56"/>
    <path id="Path_47" data-name="Path 47" d="M536.419,250.353a55.854,55.854,0,0,0-26.716,104.9L536.419,306.2Z" transform="translate(-366.378 -209.316)" fill="#8f46bc"/>
    <rect id="Rectangle_39" data-name="Rectangle 39" width="10.694" height="10.694" transform="translate(58.648 141.474)" fill="#8f46bc"/>
    <rect id="Rectangle_40" data-name="Rectangle 40" width="10.694" height="10.694" transform="translate(72.497 141.474)" fill="#3f3d56"/>
    <rect id="Rectangle_41" data-name="Rectangle 41" width="10.694" height="10.694" transform="translate(86.346 141.474)" fill="#575a89"/>
    <rect id="Rectangle_42" data-name="Rectangle 42" width="43.965" height="1.782" transform="translate(221.592 143.958)" fill="#3f3d56"/>
    <rect id="Rectangle_43" data-name="Rectangle 43" width="43.965" height="1.782" transform="translate(221.592 149.107)" fill="#3f3d56"/>
    <rect id="Rectangle_44" data-name="Rectangle 44" width="43.965" height="1.782" transform="translate(221.592 154.256)" fill="#3f3d56"/>
    <path id="Path_48" data-name="Path 48" d="M630.349,556.177l.707,5.888,4,1.884,4.475-1.413,3.062,1.413.942-5.417-5.417-6.124Z" transform="translate(-388.925 -326.171)" fill="#ffb9b9"/>
    <path id="Path_49" data-name="Path 49" d="M790,713.586s-3.651-4.257-3.71-2.129-8.066,9.43-8.066,9.43-12.482,3.768-2.826,6.123,30.853-4.475,31.56-5.888-5.888-12.247-6.595-11.3S796.125,714.057,790,713.586Z" transform="translate(-545.936 -479.105)" fill="#2f2e41"/>
    <path id="Path_50" data-name="Path 50" d="M778.39,555.1s-1.413,11.069,0,12.718.707,4.946,0,5.417.942,2.355,2.12,3.3,2.826,5.181,2.826,5.181,6.359,16.722,6.359,18.371,2.826,5.181,2.591,6.359,1.649,4.946,1.413,5.652,3.062,7.066,2.12,8.008-13.9,4.24-13.189,2.12,1.177-4.71.706-4.71-2.591-2.591-2.12-3.533-14.131-25.672-14.131-25.672Z" transform="translate(-542.515 -390.57)" fill="#2f2e41"/>
    <path id="Path_51" data-name="Path 51" d="M790,713.586s-3.651-4.257-3.71-2.129-8.066,9.43-8.066,9.43-12.482,3.768-2.826,6.123,30.853-4.475,31.56-5.888-5.888-12.247-6.595-11.3S796.125,714.057,790,713.586Z" transform="translate(-545.936 -479.105)" opacity="0.1"/>
    <path id="Path_52" data-name="Path 52" d="M778.39,555.1s-1.413,11.069,0,12.718.707,4.946,0,5.417.942,2.355,2.12,3.3,2.826,5.181,2.826,5.181,6.359,16.722,6.359,18.371,2.826,5.181,2.591,6.359,1.649,4.946,1.413,5.652,3.062,7.066,2.12,8.008-13.9,4.24-13.189,2.12,1.177-4.71.706-4.71-2.591-2.591-2.12-3.533-14.131-25.672-14.131-25.672Z" transform="translate(-542.515 -390.57)" opacity="0.1"/>
    <path id="Path_53" data-name="Path 53" d="M556.369,554.384l-2.591,6.594,1.178,9.185,7.537-.471,4.239-3.768v-8.007Z" transform="translate(-341.664 -327.302)" fill="#ffb9b9"/>
    <path id="Path_54" data-name="Path 54" d="M707.407,711.381s-2.591-8.479-4-6.123a37.226,37.226,0,0,0-2.355,4.71s-11.54,7.536-14.6,7.536-5.888,3.768-1.884,5.182,34.621,3.3,35.092,0-.471-13.9-1.884-12.718S709.056,713.736,707.407,711.381Z" transform="translate(-490.803 -476.291)" fill="#2f2e41"/>
    <path id="Path_55" data-name="Path 55" d="M718.149,476.1s-4.946,8.479-5.417,9.421-3.062,7.066,1.884,9.421,9.185-17.193,9.185-17.193Z" transform="translate(-506.991 -341.41)" fill="#ffb9b9"/>
    <path id="Path_56" data-name="Path 56" d="M730.555,444.148s-7.537,14.6-6.123,15.073,7.065,3.3,7.065,3.3l2.591-14.838Z" transform="translate(-514.615 -322.562)" fill="#575a88"/>
    <path id="Path_57" data-name="Path 57" d="M730.555,444.148s-7.537,14.6-6.123,15.073,7.065,3.3,7.065,3.3l2.591-14.838Z" transform="translate(-514.615 -322.562)" opacity="0.1"/>
    <path id="Path_58" data-name="Path 58" d="M736.679,472.64s-1.649,12.247-.942,14.838-.471,41.452.471,43.571,1.649,15.78,1.649,17.428-1.884,15.073-2.355,16.251-1.884,5.181-1.178,7.065,10.363,6.594,11.776,4.946.235-6.83,1.413-7.066,2.591-11.3,2.591-11.3l7.772-43.336s14.6-36.27,11.3-39.8S736.679,472.64,736.679,472.64Z" transform="translate(-522.641 -343.3)" fill="#2f2e41"/>
    <ellipse id="Ellipse_27" data-name="Ellipse 27" cx="11.541" cy="11.541" rx="11.541" ry="11.541" transform="translate(212.217 32.164)" fill="#ffb9b9"/>
    <path id="Path_59" data-name="Path 59" d="M750.559,262.943s3.768,9.892,3.3,12.011,11.069-3.768,11.069-3.768-.706-11.54,0-14.6S750.559,262.943,750.559,262.943Z" transform="translate(-531.165 -211.657)" fill="#ffb9b9"/>
    <path id="Path_60" data-name="Path 60" d="M773.206,341.448c-.052,1.976-.085,3.154-.085,3.154s.707,10.834-.471,14.367-1.178,6.124-1.884,8.479c-.207.685-3.026,1.053-6.986,1.215-3.631.148-8.222.127-12.629.026-7.3-.17-14.1-.561-15.243-.77-2.591-.471.471-4.475-.471-6.595s1.649-29.2,1.649-29.2-.235-15.309.942-21.2,5.652-15.309,6.594-16.486.236-1.884-1.884-3.3,0-6.83,0-6.83c4-3.3,14.131-3.768,14.131-3.768s15.544,16.015,16.486,19.313c.57,1.992.365,17.909.116,30.2C773.375,334.674,773.274,338.786,773.206,341.448Z" transform="translate(-523.357 -227.053)" fill="#575a88"/>
    <path id="Path_61" data-name="Path 61" d="M771.942,491.523s-8.95,18.371-1.884,19.548,10.6-16.722,10.6-16.722Z" transform="translate(-541.441 -350.516)" fill="#ffb9b9"/>
    <path id="Path_62" data-name="Path 62" d="M735.145,224.23c-.408-1.979,1.1-3.83,2.7-5.073a19.716,19.716,0,0,1,12.129-4.136,13.214,13.214,0,0,1,8.611,2.856,11.935,11.935,0,0,1,3.736,9.737,19.36,19.36,0,0,1-3.9,9.926c-1.012,1.4-2.638,2.853-4.255,2.242a3.954,3.954,0,0,1-1.574-1.33,24.4,24.4,0,0,1-2.7-4.147,16.494,16.494,0,0,0-1.9-3.274,3.862,3.862,0,0,0-3.307-1.514c-1.035.143-2.051.872-3.038.529-1.1-.381-1.364-1.786-1.451-2.945a19.993,19.993,0,0,0-.381-3.944C739.426,223.363,735.335,225.178,735.145,224.23Z" transform="translate(-522.572 -186.375)" fill="#2f2e41"/>
    <path id="Path_63" data-name="Path 63" d="M792.375,365.632c-2.638,9.513-8.688,25.545-9.034,26.235-.087.177-.224.523-.391.98-3.632.148-8.222.127-12.629.026A26.482,26.482,0,0,0,771.8,388.8c0-1.178,5.653-31.56,5.653-31.56s-4.475-13.425-8.479-24.73,11.894-9.067,11.894-9.067c8.479-2.12,10.01,1.531,10.01,1.531s.747,19.854,1.764,29.256a19.33,19.33,0,0,0,.827,4.659C793.844,359.584,793.335,362.179,792.375,365.632Z" transform="translate(-542.985 -251.846)" opacity="0.1"/>
    <path id="Path_64" data-name="Path 64" d="M779.336,306.048s-10.834,4.475-6.83,15.78,8.479,24.73,8.479,24.73-5.652,30.382-5.652,31.56-3.533,7.537-2.12,8.714,10.834,3.533,11.07,2.355a79.662,79.662,0,0,1,2.591-8.008c.471-.942,11.54-30.382,10.127-32.973s-2.591-33.915-2.591-33.915S787.815,303.928,779.336,306.048Z" transform="translate(-545.041 -241.998)" fill="#575a88"/>
    <path id="Path_65" data-name="Path 65" d="M644.92,462.039l-41.628-39.062L578.713,473.74a55.6,55.6,0,0,0,26.716,6.794C620.852,480.534,634.813,472.146,644.92,462.039Z" transform="translate(-428.259 -310.994)" fill="#575a89"/>
    <path id="Path_66" data-name="Path 66" d="M644.92,462.039l-41.628-39.062L578.713,473.74a55.6,55.6,0,0,0,26.716,6.794C620.852,480.534,634.813,472.146,644.92,462.039Z" transform="translate(-428.259 -310.994)" opacity="0.1"/>
    <path id="Path_67" data-name="Path 67" d="M636.92,468.467l-39.49-39.49L570.713,478.03A55.876,55.876,0,0,0,636.92,468.467Z" transform="translate(-423.259 -314.503)" fill="#575a89"/>
    <line id="Line_11" data-name="Line 11" x2="169.307" transform="translate(133.47 248.295)" fill="none" stroke="#3f3d56" stroke-miterlimit="10" stroke-width="2"/>
    <line id="Line_12" data-name="Line 12" y1="49.635" transform="translate(279.298 199.07)" fill="#3f3d56" stroke="#3f3d56" stroke-miterlimit="10" stroke-width="2"/>
    <ellipse id="Ellipse_28" data-name="Ellipse 28" cx="7.019" cy="7.019" rx="7.019" ry="7.019" transform="translate(272.279 193.712)" fill="#3f3d56"/>
    <path id="Path_68" data-name="Path 68" d="M886.716,681.646s-1-21.567-21.559-19.06" transform="translate(-607.419 -451.985)" fill="#3f3d56"/>
  </g>
</svg>
